<?xml version="1.0" encoding="utf-8"?>
<!-- Generator: Adobe Illustrator 24.3.0, SVG Export Plug-In . SVG Version: 6.00 Build 0)  -->
<svg version="1.1" id="Capa_1" xmlns="http://www.w3.org/2000/svg" xmlns:xlink="http://www.w3.org/1999/xlink" x="0px" y="0px"
	 viewBox="0 0 50 41.68" style="enable-background:new 0 0 50 41.68;" xml:space="preserve">
<style type="text/css">
	.st0{fill:#0E283C;}
</style>
<g>
	<path class="st0" d="M18.99,39.74c-2,0.01-2.84-1.36-2.23-3c1.66-4.41,3.34-8.8,5.02-13.2c2.46-6.44,4.93-12.88,7.39-19.33
		c0.1-0.27,0.19-0.55,0.3-0.81c0.53-1.23,1.58-1.75,2.67-1.33c1.09,0.42,1.55,1.51,1.08,2.76c-1.23,3.29-2.49,6.57-3.74,9.84
		c-2.96,7.76-5.93,15.51-8.88,23.27C20.23,38.96,19.72,39.72,18.99,39.74z"/>
	<path class="st0" d="M44.36,20.83c-3.21-1.98-6.23-3.85-9.25-5.71c-0.32-0.2-0.65-0.38-0.94-0.6c-0.85-0.67-1.05-1.78-0.52-2.66
		c0.54-0.89,1.65-1.3,2.58-0.74c3.61,2.17,7.25,4.3,10.74,6.65c2.05,1.39,1.86,5-0.23,6.35c-3.36,2.18-6.79,4.25-10.22,6.33
		c-1.15,0.7-2.32,0.41-2.91-0.62c-0.58-1-0.26-2.15,0.87-2.86c2.84-1.77,5.69-3.52,8.53-5.28C43.41,21.45,43.78,21.2,44.36,20.83z"
		/>
	<path class="st0" d="M5.68,20.85c0.45,0.3,0.77,0.53,1.11,0.74c2.88,1.78,5.76,3.55,8.63,5.34c1.18,0.74,1.51,1.94,0.86,2.95
		c-0.62,0.98-1.76,1.21-2.94,0.49c-3.35-2.04-6.7-4.07-10.01-6.18C0.97,22.69,1,18.97,3.37,17.46c3.27-2.08,6.59-4.1,9.9-6.12
		c1.25-0.77,2.4-0.56,3.04,0.46c0.65,1.05,0.27,2.23-1,3.02c-2.84,1.77-5.69,3.52-8.53,5.28C6.44,20.31,6.12,20.55,5.68,20.85z"/>
</g>
</svg>
