<?xml version="1.0" encoding="utf-8"?>
<!-- Generator: Adobe Illustrator 24.3.0, SVG Export Plug-In . SVG Version: 6.00 Build 0)  -->
<svg version="1.1" id="Object" xmlns="http://www.w3.org/2000/svg" xmlns:xlink="http://www.w3.org/1999/xlink" x="0px" y="0px"
	 viewBox="0 0 100 100" style="enable-background:new 0 0 100 100;" xml:space="preserve">
<style type="text/css">
	.st0{fill:#921F1D;}
	.st1{fill:#5A180C;}
	.st2{opacity:0.5;fill:#57062A;enable-background:new    ;}
	.st3{opacity:0.7;fill:#57062A;enable-background:new    ;}
	.st4{fill:#FDFBF7;}
	.st5{fill:#C1B9AC;}
	.st6{opacity:0.5;fill:#F8ECDF;enable-background:new    ;}
	.st7{opacity:0.5;fill:#D9D4CF;enable-background:new    ;}
	.st8{opacity:0.5;fill:#476BAD;enable-background:new    ;}
	.st9{fill:#F0C72F;}
	.st10{fill:#B58629;}
	.st11{opacity:0.5;fill:#E5AC29;enable-background:new    ;}
	.st12{opacity:0.7;fill:#E5AC29;enable-background:new    ;}
	.st13{fill:#81B03E;}
	.st14{fill:#40713A;}
	.st15{opacity:0.5;fill:#63803D;enable-background:new    ;}
	.st16{opacity:0.7;fill:#63803D;enable-background:new    ;}
	.st17{fill:#CD6F9F;}
	.st18{fill:#9D4B77;}
	.st19{opacity:0.5;fill:#CA5D7F;enable-background:new    ;}
	.st20{opacity:0.7;fill:#CA5D7F;enable-background:new    ;}
	.st21{fill:#D1711E;}
	.st22{fill:#983D14;}
	.st23{opacity:0.5;fill:#A8642C;enable-background:new    ;}
	.st24{opacity:0.7;fill:#A8642C;enable-background:new    ;}
	.st25{fill:#476BAD;}
	.st26{fill:#233B77;}
	.st27{opacity:0.7;fill:#476BAD;enable-background:new    ;}
</style>
<g>
	<g>
		<g>
			<path class="st0" d="M94.1,67.9L51.3,78.2c0,0,1.8-0.2,3.4,1.5c1.4,1.6,2.2,3.7,2.1,5.9c-0.3,4-1.2,6.7-4.1,7.3l0,0l41-11.4
				C93.6,81.5,99.4,76.4,94.1,67.9z"/>
			<path class="st1" d="M52.7,93.4l-0.2-0.8l0.6-0.2c2-0.7,3-2.7,3.3-6.8c0.1-2.1-0.5-4.1-1.9-5.6c-1.1-1.3-2.4-1.4-2.9-1.4
				c-0.1,0-0.1,0-0.2,0l-0.1-0.8l43.1-10.4l0.2,0.3c5.5,8.8-0.5,14.2-0.5,14.2l-0.1,0.1l-0.1,0L53.3,93.2
				C53.1,93.3,52.9,93.3,52.7,93.4z M53.2,78.2c0.6,0.2,1.2,0.6,1.7,1.3c1.6,1.7,2.3,4,2.2,6.2c-0.2,2.2-0.5,4.5-1.8,6l38-10.6
				c0.6-0.6,5-5.2,0.5-12.8L53.2,78.2z"/>
		</g>
		<path class="st2" d="M94.1,67.9l-2.8,0.7c0.7,0.7,1.1,1.6,1,2.9c-0.7,5.3-8.2,6.9-11.8,7.8c-6.8,1.7-22.6,5.2-23.8,5.5
			c0,0.3,0,0.7,0,1c-0.3,4-1.2,6.7-4.1,7.3l41-11.4C93.6,81.5,99.4,76.4,94.1,67.9z"/>
		<path class="st3" d="M95.5,70.5c0,1-0.2,2.1-0.5,3.1c-1.7,4.9-6.8,6.7-11,7.9c-6.9,2-25.5,6.8-27.7,7.5c-0.6,2.1-1.6,3.5-3.6,4
			l41-11.4C93.6,81.5,98.3,77.5,95.5,70.5z"/>
		<g>
			<path class="st4" d="M2.8,75c0,0,3.6,7.7,0,14.3l49.1,3.9c0,0,4.5-0.3,4.5-7.3c0-6.3-3.7-7.7-6-7.7C47.2,78.2,2.8,75,2.8,75z"/>
			<path class="st5" d="M51.9,93.4L51.9,93.4L2.5,89.5l0.2-0.3c3.5-6.4,0-14,0-14.1l-0.2-0.3l0.4,0c0.4,0,44.4,3.1,47.5,3.2
				c4.6,0.1,6.3,4.1,6.3,7.9c0,3.7-1.3,5.5-2.3,6.4C53.2,93.3,52,93.4,51.9,93.4L51.9,93.4z M3.2,89.1l48.7,3.8c0.3,0,4.3-0.6,4.3-7
				c0-6.9-4.4-7.5-5.8-7.5c-2.9,0-42.9-2.9-47.2-3.2C3.8,76.8,6.2,83.4,3.2,89.1z"/>
		</g>
		<path class="st6" d="M50.4,78.2c-0.1,0-0.3,0-0.6,0c1.9,1,3.1,2.8,2.2,6.4c-0.6,2.4-3.1,2.9-4.9,3c-3.7,0.4-7.4,0.7-11.2,0.5
			c-4.2-0.1-8.3-0.6-12.4-0.9c-3.1-0.2-6.2-0.2-9.2-0.9c-2.4-0.6-5.6-1.6-6.8-4.4c-0.7-1.5-1-3.3-1.8-4.7c-0.6-1-1.4-1.6-2.3-2.1
			c-0.4,0-0.6,0-0.6,0s3.6,7.7,0,14.3l49.1,3.9c0,0,4.5-0.3,4.5-7.3C56.4,79.6,52.7,78.2,50.4,78.2z"/>
		<path class="st7" d="M54,79.5c0.9,1.1,1.8,5,0.9,7.4c-1.3,3.5-4.7,4.1-7.8,4.1c-4.1,0-8.1-0.4-12.2-0.5c-4.6-0.1-9.2-0.1-13.9-0.6
			c-3.4-0.3-7.1-0.4-10.5-1.2c-2.3-0.6-3.9-1.8-4.6-4.5c-0.7-2.9-0.8-6.6-2.9-8.6c0.7,1.7,2.9,8.2-0.2,13.8l49.1,3.9
			c0,0,4.5-0.3,4.5-7.3C56.4,82.5,55.3,80.6,54,79.5z"/>
	</g>
	<path class="st5" d="M5.6,78.2c0,0,2.9,0.1,7.2,0.4c2.1,0.1,4.6,0.3,7.3,0.4c2.7,0.2,5.5,0.4,8.4,0.5c2.9,0.2,5.7,0.4,8.4,0.6
		c2.7,0.2,5.2,0.4,7.3,0.6c4.3,0.4,7.1,0.6,7.1,0.6s-2.9-0.1-7.2-0.4c-2.1-0.1-4.6-0.3-7.3-0.4c-2.7-0.2-5.5-0.4-8.4-0.5
		c-2.9-0.2-5.7-0.4-8.4-0.6c-2.7-0.2-5.2-0.4-7.3-0.6C8.4,78.4,5.6,78.2,5.6,78.2z"/>
	<path class="st5" d="M6.9,81.8c0,0,2.5,0.2,6.3,0.4c1.9,0.1,4.1,0.3,6.4,0.4c2.4,0.2,4.9,0.4,7.4,0.6c2.5,0.2,5,0.4,7.4,0.6
		c2.4,0.2,4.5,0.4,6.4,0.6c3.8,0.4,6.3,0.6,6.3,0.6s-2.5-0.1-6.3-0.4c-1.9-0.1-4.1-0.3-6.4-0.4c-2.4-0.2-4.9-0.4-7.4-0.6
		c-2.5-0.2-5-0.4-7.4-0.6c-2.4-0.2-4.5-0.4-6.4-0.6C9.4,82,6.9,81.8,6.9,81.8z"/>
	<path class="st5" d="M6,86c0,0,3,0.2,7.5,0.4c2.3,0.1,4.9,0.3,7.7,0.5c2.8,0.2,5.8,0.4,8.9,0.6c3,0.2,6,0.4,8.8,0.7
		c2.8,0.2,5.5,0.4,7.7,0.6c4.5,0.4,7.5,0.7,7.5,0.7s-3-0.2-7.5-0.4c-2.3-0.1-4.9-0.3-7.7-0.5c-2.8-0.2-5.8-0.4-8.8-0.6
		c-3-0.2-6-0.4-8.8-0.7c-2.8-0.2-5.5-0.4-7.7-0.6C9,86.2,6,86,6,86z"/>
	<path class="st5" d="M6,88.8c0,0,2.9,0.2,7.2,0.4c2.2,0.1,4.7,0.3,7.4,0.5c2.7,0.2,5.6,0.4,8.5,0.6c2.9,0.2,5.8,0.4,8.5,0.7
		c2.7,0.2,5.2,0.4,7.4,0.6c4.3,0.4,7.2,0.7,7.2,0.7S49.3,92,45,91.8c-2.2-0.1-4.7-0.3-7.4-0.5c-2.7-0.2-5.6-0.4-8.5-0.6
		c-2.9-0.2-5.8-0.4-8.5-0.7c-2.7-0.2-5.2-0.4-7.4-0.6C8.9,89,6,88.8,6,88.8z"/>
	<path class="st8" d="M54.7,79.1l36-8.5C90.7,70.6,80.4,77.5,54.7,79.1z"/>
	<g>
		<g>
			<g>
				<path class="st9" d="M94.9,56.1l-43.1,9.1c0,0,1.9-0.2,3.4,1.3c1.4,1.4,2.2,3.2,2.1,5.2c-0.3,3.5-1.2,5.8-4.2,6.4l0,0l41.3-10
					C94.4,68.2,100.3,63.7,94.9,56.1z"/>
				<path class="st10" d="M53.2,78.6L53,77.8l0.6-0.1c2-0.6,3-2.4,3.3-5.9c0.1-1.8-0.5-3.5-1.9-4.9c-1.1-1.1-2.4-1.2-2.9-1.2
					c-0.1,0-0.2,0-0.2,0l-0.1-0.8l43.4-9.2l0.2,0.2c5.5,7.8-0.5,12.5-0.6,12.6l-0.2,0.1l-40.7,9.9C53.6,78.5,53.4,78.6,53.2,78.6z
					 M53.9,65.2c0.5,0.2,1.1,0.6,1.6,1.1c1.6,1.5,2.4,3.5,2.2,5.5c-0.2,1.9-0.5,3.9-1.7,5.2l38.2-9.3c0.6-0.5,5-4.6,0.5-11.2
					L53.9,65.2z"/>
			</g>
			<path class="st11" d="M94.9,56.1l-2.8,0.6c0.7,0.6,1.2,1.4,1,2.5c-0.7,4.7-8.2,6.1-11.9,6.9c-6.8,1.5-22.8,4.5-23.9,4.8
				c0,0.3,0,0.6,0,0.9c-0.3,3.5-1.2,5.8-4.2,6.4l41.3-10C94.4,68.2,100.3,63.7,94.9,56.1z"/>
			<path class="st12" d="M96.3,58.5c0,0.9-0.2,1.8-0.5,2.7c-1.7,4.3-6.9,5.9-11.1,7c-7,1.8-25.7,6-27.9,6.6
				c-0.6,1.9-1.6,3.1-3.7,3.5l41.3-10C94.4,68.2,99.1,64.6,96.3,58.5z"/>
			<g>
				<path class="st4" d="M3,62.4c0,0,3.7,6.8,0,12.6l49.4,3.4c0,0,4.5-0.3,4.5-6.4c0-5.5-3.7-6.7-6.1-6.8C47.7,65.2,3,62.4,3,62.4z"
					/>
				<path class="st5" d="M52.4,78.6L52.4,78.6L2.6,75.2l0.2-0.3c3.6-5.6,0-12.3,0-12.3l-0.2-0.3l0.4,0c0.4,0,44.8,2.8,47.9,2.8
					c4.6,0.1,6.3,3.6,6.3,7C57.1,78.2,52.5,78.6,52.4,78.6L52.4,78.6z M3.3,74.8l49.1,3.4c0.3,0,4.3-0.5,4.3-6.2
					c0-6-4.5-6.5-5.9-6.6c-3,0-43.3-2.5-47.5-2.8C4,64.1,6.3,69.8,3.3,74.8z"/>
			</g>
			<path class="st6" d="M50.8,65.2c-0.1,0-0.3,0-0.6,0c1.9,0.9,3.1,2.5,2.3,5.6c-0.6,2.1-3.1,2.5-4.9,2.7c-3.7,0.3-7.5,0.6-11.2,0.5
				c-4.2-0.1-8.3-0.5-12.5-0.8c-3.1-0.2-6.2-0.2-9.3-0.8c-2.5-0.5-5.6-1.4-6.8-3.9c-0.7-1.3-1-2.9-1.8-4.2c-0.6-0.9-1.5-1.4-2.4-1.8
				c-0.4,0-0.6,0-0.6,0S6.6,69.2,3,75l49.4,3.4c0,0,4.5-0.3,4.5-6.4C56.9,66.5,53.2,65.2,50.8,65.2z"/>
			<path class="st7" d="M54.5,66.3c0.9,1,1.8,4.4,0.9,6.5c-1.3,3-4.7,3.6-7.9,3.6c-4.1,0-8.2-0.3-12.3-0.4c-4.7-0.1-9.3-0.1-14-0.5
				c-3.5-0.3-7.2-0.3-10.6-1.1c-2.3-0.5-3.9-1.6-4.6-4c-0.7-2.6-0.8-5.8-2.9-7.6C3.9,64.4,6.1,70,3,75l49.4,3.4c0,0,4.5-0.3,4.5-6.4
				C56.9,69,55.8,67.3,54.5,66.3z"/>
		</g>
		<path class="st5" d="M5.7,64.5c0,0,2.9,0.1,7.2,0.3c2.2,0.1,4.7,0.2,7.4,0.4c2.7,0.2,5.6,0.3,8.5,0.5c2.9,0.2,5.8,0.4,8.5,0.5
			c2.7,0.2,5.2,0.4,7.4,0.5c4.3,0.3,7.2,0.5,7.2,0.5s-2.9-0.1-7.2-0.3c-2.2-0.1-4.7-0.2-7.4-0.4c-2.7-0.1-5.6-0.3-8.5-0.5
			c-2.9-0.2-5.8-0.4-8.5-0.5c-2.7-0.2-5.2-0.4-7.4-0.5C8.6,64.7,5.7,64.5,5.7,64.5z"/>
		<path class="st5" d="M7,67.6c0,0,2.5,0.1,6.3,0.3c1.9,0.1,4.1,0.2,6.5,0.4c2.4,0.2,4.9,0.3,7.4,0.5c2.5,0.2,5.1,0.4,7.4,0.5
			c2.4,0.2,4.6,0.4,6.5,0.5c3.8,0.3,6.3,0.6,6.3,0.6s-2.5-0.1-6.3-0.3c-1.9-0.1-4.1-0.2-6.5-0.4c-2.4-0.2-4.9-0.3-7.4-0.5
			c-2.5-0.2-5.1-0.4-7.4-0.5c-2.4-0.2-4.6-0.4-6.5-0.5C9.6,67.8,7,67.6,7,67.6z"/>
		<path class="st5" d="M6.1,71.3c0,0,3,0.1,7.6,0.4c2.3,0.1,4.9,0.3,7.8,0.4c2.8,0.2,5.9,0.3,8.9,0.5c3,0.2,6.1,0.4,8.9,0.6
			c2.8,0.2,5.5,0.4,7.8,0.5c4.5,0.4,7.6,0.6,7.6,0.6s-3-0.1-7.6-0.4c-2.3-0.1-4.9-0.3-7.8-0.4c-2.8-0.2-5.9-0.3-8.9-0.5
			c-3-0.2-6.1-0.4-8.9-0.6c-2.8-0.2-5.5-0.4-7.8-0.5C9.2,71.5,6.1,71.3,6.1,71.3z"/>
		<path class="st5" d="M6.1,73.7c0,0,2.9,0.1,7.3,0.4c2.2,0.1,4.7,0.3,7.5,0.4c2.7,0.2,5.6,0.3,8.6,0.5c2.9,0.2,5.8,0.4,8.5,0.6
			c2.7,0.2,5.3,0.4,7.5,0.5c4.4,0.4,7.3,0.6,7.3,0.6s-2.9-0.1-7.3-0.4c-2.2-0.1-4.7-0.3-7.5-0.4c-2.7-0.2-5.6-0.3-8.6-0.5
			c-2.9-0.2-5.8-0.4-8.5-0.6c-2.7-0.2-5.3-0.4-7.5-0.5C9,74,6.1,73.7,6.1,73.7z"/>
		<path class="st8" d="M55.2,65.3l36.2-7.5C91.5,57.8,81.1,63.9,55.2,65.3z"/>
	</g>
	<g>
		<g>
			<g>
				<path class="st13" d="M94.8,43.6l-43.4,8.5c0,0,1.8-0.2,3.4,1.3c1.4,1.4,2.2,3.2,2.1,5.2c-0.3,3.5-1.2,5.9-4.1,6.4l0,0l41.6-9.5
					C94.4,55.6,100.2,51.1,94.8,43.6z"/>
				<path class="st14" d="M52.9,65.5l-0.2-0.8l0.3-0.1c2.2-0.6,3.2-2.3,3.4-6c0.1-1.8-0.6-3.5-2-4.9c-1.4-1.3-3-1.2-3.1-1.2
					l-0.1-0.8L95,43.2l0.2,0.2c5.5,7.7-0.4,12.6-0.5,12.6L94.5,56l-41.2,9.4C53.2,65.5,53,65.5,52.9,65.5z M53.6,52.1
					c0.5,0.2,1,0.5,1.5,1c1.6,1.5,2.4,3.5,2.2,5.5c-0.1,1.9-0.5,4-1.7,5.3l38.6-8.8c0.6-0.5,5-4.6,0.4-11.2L53.6,52.1z"/>
			</g>
			<path class="st15" d="M94.8,43.6l-2.7,0.5c0.3,0.2,0.5,0.7,0.3,1.8c-0.7,4.7-8.1,6.1-11.8,6.9c-6.8,1.5-22.6,4.7-23.7,4.9
				c0,0.3,0,0.6,0,0.9c-0.3,3.5-1.2,5.9-4.1,6.4l41.6-9.5C94.4,55.6,100.2,51.1,94.8,43.6z"/>
			<path class="st16" d="M96.2,45.9c0,0.9-0.2,1.8-0.5,2.7c-1.7,4.3-7.4,5.1-11.5,6.2c-6.9,1.8-25.5,6.1-27.7,6.8
				c-0.5,1.9-1.6,3.1-3.6,3.5l41.6-9.5C94.4,55.6,99,52,96.2,45.9z"/>
			<g>
				<path class="st4" d="M2.9,49.6c0,0,3.7,6.8,0.1,12.6l49.1,3.1c0,0,4.5-0.3,4.4-6.4c0-5.5-3.7-6.7-6.1-6.7
					C47.4,52.1,2.9,49.6,2.9,49.6z"/>
				<path class="st5" d="M52.2,65.5L52.2,65.5L2.7,62.4l0.2-0.3c3.5-5.6,0-12.3-0.1-12.3l-0.2-0.3l0.4,0c0.4,0,44.5,2.5,47.6,2.5
					c4.6,0,6.3,3.6,6.3,6.9C56.9,65.1,52.2,65.5,52.2,65.5L52.2,65.5z M3.4,62l48.8,3.1c0.3,0,4.3-0.5,4.2-6.2c0-6-4.5-6.5-5.9-6.5
					c-2.9,0-43-2.2-47.2-2.5C4,51.3,6.3,57,3.4,62z"/>
			</g>
			<path class="st6" d="M50.5,52.1c-0.1,0-0.3,0-0.6,0c1.9,0.9,3.1,2.5,2.3,5.6c-0.6,2.1-3.1,2.5-4.9,2.7c-3.7,0.3-7.4,0.6-11.2,0.6
				c-4.2-0.1-8.3-0.5-12.4-0.7c-3.1-0.2-6.2-0.1-9.2-0.8c-2.5-0.5-5.6-1.4-6.8-3.8c-0.7-1.3-1-2.9-1.8-4.2c-0.6-0.9-1.5-1.4-2.4-1.8
				c-0.4,0-0.6,0-0.6,0S6.6,56.4,3,62.2l49.1,3.1c0,0,4.5-0.3,4.4-6.4C56.6,53.4,52.9,52.1,50.5,52.1z"/>
			<path class="st7" d="M54.1,53.2c0.9,1,1.8,4.4,0.9,6.5c-1.3,3-4.7,3.7-7.8,3.7c-4.1,0-8.1-0.3-12.2-0.3
				c-4.6-0.1-9.2-0.1-13.9-0.4c-3.4-0.3-7.1-0.3-10.5-1c-2.3-0.5-3.9-1.6-4.6-4C5.3,55,5.2,51.8,3.1,50c0.7,1.5,3,7.2-0.1,12.1
				l49.1,3.1c0,0,4.5-0.3,4.4-6.4C56.6,55.9,55.5,54.2,54.1,53.2z"/>
		</g>
		<path class="st5" d="M5.7,51.6c0,0,2.9,0.1,7.2,0.3c2.1,0.1,4.7,0.2,7.3,0.3c2.7,0.1,5.5,0.3,8.4,0.4c2.9,0.2,5.7,0.3,8.4,0.5
			c2.7,0.2,5.2,0.3,7.3,0.5c4.3,0.3,7.1,0.5,7.1,0.5s-2.9-0.1-7.2-0.3c-2.1-0.1-4.7-0.2-7.3-0.3c-2.7-0.1-5.5-0.3-8.4-0.4
			c-2.9-0.2-5.7-0.3-8.4-0.5c-2.7-0.2-5.2-0.3-7.3-0.5C8.5,51.8,5.7,51.6,5.7,51.6z"/>
		<path class="st5" d="M7,54.8c0,0,2.5,0.1,6.3,0.3c1.9,0.1,4.1,0.2,6.4,0.3c2.4,0.1,4.9,0.3,7.4,0.4c2.5,0.2,5,0.3,7.4,0.5
			c2.4,0.2,4.6,0.3,6.4,0.5c3.8,0.3,6.3,0.5,6.3,0.5s-2.5-0.1-6.3-0.3c-1.9-0.1-4.1-0.2-6.4-0.3c-2.4-0.1-4.9-0.3-7.4-0.4
			c-2.5-0.2-5-0.3-7.4-0.5c-2.4-0.2-4.6-0.3-6.4-0.5C9.5,55,7,54.8,7,54.8z"/>
		<path class="st5" d="M6.1,58.5c0,0,3,0.1,7.5,0.3c2.3,0.1,4.9,0.2,7.7,0.4c2.8,0.1,5.8,0.3,8.9,0.5c3,0.2,6,0.4,8.9,0.5
			c2.8,0.2,5.5,0.4,7.7,0.5c4.5,0.3,7.5,0.5,7.5,0.5s-3-0.1-7.5-0.3c-2.3-0.1-4.9-0.2-7.7-0.4c-2.8-0.2-5.8-0.3-8.9-0.5
			c-3-0.2-6-0.4-8.9-0.5c-2.8-0.2-5.5-0.4-7.7-0.5C9.1,58.7,6.1,58.5,6.1,58.5z"/>
		<path class="st5" d="M6.1,60.9c0,0,2.9,0.1,7.2,0.3c2.2,0.1,4.7,0.2,7.4,0.4c2.7,0.2,5.6,0.3,8.5,0.5c2.9,0.2,5.8,0.4,8.5,0.5
			c2.7,0.2,5.2,0.4,7.4,0.5c4.3,0.3,7.2,0.5,7.2,0.5s-2.9-0.1-7.2-0.3c-2.2-0.1-4.7-0.2-7.4-0.4c-2.7-0.2-5.6-0.3-8.5-0.5
			c-2.9-0.2-5.8-0.4-8.5-0.5c-2.7-0.2-5.2-0.4-7.4-0.5C9,61.1,6.1,60.9,6.1,60.9z"/>
		<path class="st8" d="M54.9,52.2l36-7.7C90.8,44.5,80.6,50.6,54.9,52.2z"/>
	</g>
	<g>
		<g>
			<g>
				<path class="st17" d="M94.8,31.2l-43.4,8.5c0,0,1.8-0.2,3.4,1.3c1.4,1.4,2.3,3.2,2.1,5.2c-0.2,2.5-0.4,5.7-3.4,6.2l-0.7,0.2
					l41.6-9.5C94.4,43.2,100.2,38.7,94.8,31.2z"/>
				<path class="st18" d="M52.9,53.1l-0.2-0.8l0.7-0.2c2.5-0.5,2.8-3.2,3-5.6l0-0.3c0.2-1.7-0.5-3.5-2-4.9c-1.4-1.3-3-1.2-3.1-1.2
					l-0.1-0.8L95,30.7l0.2,0.2c5.5,7.7-0.4,12.5-0.5,12.6l-0.2,0.1L52.9,53.1z M53.6,39.7c0.5,0.2,1,0.5,1.5,1
					c1.6,1.6,2.4,3.6,2.2,5.5l0,0.3c-0.2,1.7-0.4,3.7-1.4,5l38.3-8.7c0.6-0.5,5-4.6,0.4-11.2L53.6,39.7z"/>
			</g>
			<path class="st19" d="M94.8,31.2l-2.7,0.5c0.3,0.2,0.5,0.7,0.3,1.8c-0.7,4.7-8.1,6.1-11.8,6.9c-6.8,1.5-22.6,4.7-23.7,4.9
				c0,0.3,0,0.6,0,0.9c-0.3,3.5-1.2,5.9-4.1,6.4l41.6-9.5C94.4,43.2,100.2,38.7,94.8,31.2z"/>
			<path class="st20" d="M96.2,33.5c0,0.9-0.2,1.8-0.5,2.7c-1.7,4.3-7.4,5.1-11.5,6.2c-6.9,1.8-25.5,6.1-27.7,6.8
				c-0.5,1.9-1.6,3.1-3.6,3.5l41.6-9.5C94.4,43.2,99,39.6,96.2,33.5z"/>
			<g>
				<path class="st4" d="M2.9,37.2c0,0,3.7,6.8,0.1,12.6l49.1,3.1c0,0,4.5-0.3,4.4-6.4c0-5.5-3.7-6.7-6.1-6.7
					C47.4,39.7,2.9,37.2,2.9,37.2z"/>
				<path class="st5" d="M52.2,53.1L52.2,53.1L2.7,50l0.2-0.3c3.5-5.6,0-12.3-0.1-12.3L2.6,37L3,37c0.4,0,44.5,2.5,47.6,2.5
					c4.6,0,6.3,3.6,6.3,6.9C56.9,52.7,52.2,53.1,52.2,53.1L52.2,53.1z M3.4,49.6l48.8,3.1c0.3,0,4.3-0.5,4.2-6.2
					c0-6-4.5-6.5-5.9-6.5c-2.9,0-43-2.2-47.2-2.5C4,38.8,6.3,44.5,3.4,49.6z"/>
			</g>
			<path class="st6" d="M50.5,39.7c-0.1,0-0.3,0-0.6,0c1.9,0.8,3.1,2.5,2.3,5.6c-0.6,2.1-3.1,2.5-4.9,2.7c-3.7,0.3-7.4,0.6-11.2,0.5
				c-4.2-0.1-8.3-0.5-12.4-0.7c-3.1-0.2-6.2-0.1-9.2-0.8c-2.5-0.5-5.6-1.4-6.8-3.8c-0.7-1.3-1-2.9-1.8-4.2c-0.6-0.9-1.5-1.4-2.4-1.8
				c-0.4,0-0.6,0-0.6,0S6.6,44,3,49.8l49.1,3.1c0,0,4.5-0.3,4.4-6.4C56.6,40.9,52.9,39.7,50.5,39.7z"/>
			<path class="st7" d="M54.1,40.8c0.9,1,1.8,4.4,0.9,6.5c-1.3,3-4.7,3.7-7.8,3.7c-4.1,0-8.1-0.3-12.2-0.3
				c-4.6-0.1-9.2-0.1-13.9-0.4c-3.4-0.3-7.1-0.3-10.5-1c-2.3-0.5-3.9-1.6-4.6-4c-0.7-2.6-0.9-5.8-2.9-7.6c0.7,1.5,3,7.2-0.1,12.1
				l49.1,3.1c0,0,4.5-0.3,4.4-6.4C56.6,43.5,55.5,41.7,54.1,40.8z"/>
		</g>
		<path class="st5" d="M5.7,39.2c0,0,2.9,0.1,7.2,0.3c2.1,0.1,4.7,0.2,7.3,0.3c2.7,0.1,5.5,0.3,8.4,0.4c2.9,0.2,5.7,0.3,8.4,0.5
			c2.7,0.2,5.2,0.3,7.3,0.5c4.3,0.3,7.1,0.5,7.1,0.5s-2.9-0.1-7.2-0.3c-2.1-0.1-4.7-0.2-7.3-0.3c-2.7-0.1-5.5-0.3-8.4-0.4
			c-2.9-0.2-5.7-0.3-8.4-0.5c-2.7-0.2-5.2-0.3-7.3-0.5C8.5,39.4,5.7,39.2,5.7,39.2z"/>
		<path class="st5" d="M7,42.4c0,0,2.5,0.1,6.3,0.3c1.9,0.1,4.1,0.2,6.4,0.3c2.4,0.1,4.9,0.3,7.4,0.4c2.5,0.2,5,0.3,7.4,0.5
			c2.4,0.2,4.6,0.3,6.4,0.5c3.8,0.3,6.3,0.5,6.3,0.5s-2.5-0.1-6.3-0.3c-1.9-0.1-4.1-0.2-6.4-0.3c-2.4-0.1-4.9-0.3-7.4-0.4
			c-2.5-0.2-5-0.3-7.4-0.5c-2.4-0.2-4.6-0.3-6.4-0.5C9.5,42.6,7,42.4,7,42.4z"/>
		<path class="st5" d="M6.1,46.1c0,0,3,0.1,7.5,0.3c2.3,0.1,4.9,0.2,7.7,0.4c2.8,0.2,5.8,0.3,8.9,0.5c3,0.2,6,0.4,8.9,0.5
			c2.8,0.2,5.5,0.4,7.7,0.5c4.5,0.3,7.5,0.5,7.5,0.5s-3-0.1-7.5-0.3c-2.3-0.1-4.9-0.2-7.7-0.4c-2.8-0.2-5.8-0.3-8.9-0.5
			c-3-0.2-6-0.4-8.9-0.5c-2.8-0.2-5.5-0.4-7.7-0.5C9.1,46.3,6.1,46.1,6.1,46.1z"/>
		<path class="st5" d="M6.1,48.5c0,0,2.9,0.1,7.2,0.3c2.2,0.1,4.7,0.2,7.4,0.4c2.7,0.2,5.6,0.3,8.5,0.5c2.9,0.2,5.8,0.4,8.5,0.5
			c2.7,0.2,5.2,0.4,7.4,0.5c4.3,0.3,7.2,0.5,7.2,0.5s-2.9-0.1-7.2-0.3c-2.2-0.1-4.7-0.2-7.4-0.4c-2.7-0.2-5.6-0.3-8.5-0.5
			c-2.9-0.2-5.8-0.4-8.5-0.5c-2.7-0.2-5.2-0.4-7.4-0.5C9,48.7,6.1,48.5,6.1,48.5z"/>
		<path class="st8" d="M54.9,39.8l36-7.7C90.8,32.1,80.6,38.2,54.9,39.8z"/>
	</g>
	<g>
		<g>
			<g>
				<path class="st21" d="M94.7,20.8l-43.1,7.8c0,0,1.9-0.2,3.4,1.2c1.4,1.2,2.2,2.8,2.1,4.5c-0.3,3-1.2,5-4.2,5.5l0,0l41.3-8.6
					C94.2,31.1,100.1,27.3,94.7,20.8z"/>
				<path class="st22" d="M53,40.2l-0.2-0.8l0.6-0.1c2-0.5,3-2,3.3-5c0.1-1.5-0.5-3-1.9-4.1c-1.1-1-2.4-1.1-2.9-1.1
					c-0.1,0-0.2,0-0.2,0l-0.1-0.8l43.4-7.9l0.2,0.2c1.8,2.2,2.6,4.4,2.3,6.4c-0.4,2.9-2.8,4.4-2.9,4.5l-0.1,0.1L53.6,40
					C53.4,40.1,53.2,40.1,53,40.2z M53.9,28.6c0.4,0.2,0.9,0.5,1.4,0.8c1.6,1.3,2.4,3.1,2.2,4.8c-0.1,1.5-0.5,3.2-1.6,4.4l38.1-8
					c0.4-0.3,2.1-1.6,2.4-3.9c0.3-1.8-0.4-3.6-2-5.6L53.9,28.6z"/>
			</g>
			<path class="st23" d="M94.7,20.8l-2.8,0.5c0.7,0.5,1.2,1.2,1,2.2c-0.7,4-8.2,5.2-11.9,5.9c-6.8,1.3-22.8,3.9-23.9,4.1
				c0,0.2,0,0.5,0,0.7c-0.3,3-1.2,5-4.2,5.5l41.3-8.6C94.2,31.1,100.1,27.3,94.7,20.8z"/>
			<path class="st24" d="M96,22.8c0,0.8-0.2,1.6-0.5,2.3c-1.7,3.7-6.9,5.1-11.1,6c-7,1.5-25.6,5.1-27.9,5.6c-0.6,1.6-1.6,2.7-3.7,3
				l41.3-8.6C94.2,31.1,98.9,28.1,96,22.8z"/>
			<g>
				<path class="st4" d="M2.8,26.2c0,0,3.7,5.8,0,10.8l49.4,2.9c0,0,4.5-0.3,4.5-5.5c0-4.7-3.7-5.8-6.1-5.8
					C47.5,28.6,2.8,26.2,2.8,26.2z"/>
				<path class="st5" d="M52.2,40.1L52.2,40.1L2.4,37.2l0.2-0.3c3.5-4.8,0-10.5,0-10.6L2.4,26l0.4,0c0.4,0,44.8,2.4,47.9,2.4
					c3,0,6.3,1.6,6.3,6C56.9,39.8,52.3,40.1,52.2,40.1L52.2,40.1L52.2,40.1z M3.1,36.8l49.1,2.9c0.3,0,4.3-0.4,4.3-5.3
					c0-5.2-4.5-5.6-5.9-5.6c-3,0-43.3-2.2-47.5-2.4C3.8,27.7,6,32.5,3.1,36.8z"/>
			</g>
			<path class="st6" d="M50.6,28.6c-0.1,0-0.3,0-0.6,0c1.9,0.7,3.1,2.1,2.2,4.8c-0.6,1.8-3.1,2.2-4.9,2.3c-3.8,0.3-7.5,0.5-11.2,0.4
				c-4.2-0.1-8.3-0.5-12.5-0.7c-3.1-0.2-6.2-0.1-9.3-0.7c-2.5-0.5-5.6-1.2-6.8-3.3c-0.7-1.2-1-2.5-1.8-3.6c-0.6-0.8-1.5-1.2-2.4-1.6
				c-0.4,0-0.6,0-0.6,0S6.4,32,2.8,37l49.4,2.9c0,0,4.5-0.3,4.5-5.5C56.7,29.7,53,28.6,50.6,28.6z"/>
			<path class="st7" d="M54.2,29.6c0.9,0.9,1.8,3.8,0.9,5.6c-1.3,2.6-4.7,3.1-7.9,3.1c-4.1,0-8.2-0.3-12.3-0.4
				c-4.7-0.1-9.3-0.1-14-0.4c-3.5-0.2-7.2-0.3-10.6-0.9c-2.3-0.4-3.9-1.4-4.6-3.4c-0.7-2.2-0.8-5-2.9-6.5c0.7,1.3,2.9,6.2-0.2,10.4
				l49.4,2.9c0,0,4.5-0.3,4.5-5.5C56.7,31.9,55.6,30.4,54.2,29.6z"/>
		</g>
		<path class="st5" d="M5.5,28c0,0,2.9,0.1,7.2,0.3c2.2,0.1,4.7,0.2,7.4,0.3c2.7,0.1,5.6,0.3,8.5,0.4c2.9,0.2,5.8,0.3,8.5,0.5
			c2.7,0.2,5.2,0.3,7.4,0.4c4.3,0.3,7.2,0.5,7.2,0.5s-2.9-0.1-7.2-0.3c-2.2-0.1-4.7-0.2-7.4-0.3c-2.7-0.1-5.6-0.3-8.5-0.4
			c-2.9-0.2-5.8-0.3-8.5-0.5c-2.7-0.2-5.2-0.3-7.4-0.4C8.4,28.1,5.5,28,5.5,28z"/>
		<path class="st5" d="M6.8,30.6c0,0,2.5,0.1,6.3,0.3c1.9,0.1,4.1,0.2,6.5,0.3c2.4,0.1,4.9,0.3,7.4,0.4c2.5,0.2,5.1,0.3,7.4,0.5
			c2.4,0.2,4.6,0.3,6.5,0.4c3.8,0.3,6.3,0.5,6.3,0.5s-2.5-0.1-6.3-0.3c-1.9-0.1-4.1-0.2-6.5-0.3c-2.4-0.1-4.9-0.3-7.4-0.4
			c-2.5-0.2-5.1-0.3-7.4-0.5c-2.4-0.2-4.6-0.3-6.5-0.4C9.4,30.8,6.8,30.6,6.8,30.6z"/>
		<path class="st5" d="M5.9,33.8c0,0,3,0.1,7.6,0.3c2.3,0.1,4.9,0.2,7.8,0.4c2.8,0.1,5.9,0.3,8.9,0.4c3,0.2,6.1,0.3,8.9,0.5
			c2.8,0.2,5.5,0.3,7.8,0.5c4.5,0.3,7.6,0.5,7.6,0.5s-3-0.1-7.6-0.3c-2.3-0.1-4.9-0.2-7.8-0.4c-2.8-0.1-5.9-0.3-8.9-0.4
			c-3-0.2-6.1-0.3-8.9-0.5c-2.8-0.2-5.5-0.3-7.8-0.5C9,34,5.9,33.8,5.9,33.8z"/>
		<path class="st5" d="M5.9,35.9c0,0,2.9,0.1,7.3,0.3c2.2,0.1,4.7,0.2,7.5,0.4c2.7,0.1,5.6,0.3,8.6,0.4c2.9,0.2,5.8,0.3,8.5,0.5
			c2.7,0.2,5.3,0.3,7.5,0.5c4.4,0.3,7.3,0.5,7.3,0.5s-2.9-0.1-7.3-0.3c-2.2-0.1-4.7-0.2-7.5-0.4c-2.7-0.1-5.6-0.3-8.6-0.4
			c-2.9-0.2-5.8-0.3-8.5-0.5c-2.7-0.2-5.3-0.3-7.5-0.5C8.8,36.1,5.9,35.9,5.9,35.9z"/>
		<path class="st8" d="M55,28.7l36.2-6.4C91.3,22.3,80.9,27.5,55,28.7z"/>
	</g>
	<g>
		<g>
			<g>
				<path class="st25" d="M94.9,10.2l-43.1,7.8c0,0,1.9-0.2,3.4,1.2c1.4,1.2,2.2,2.8,2.1,4.5c-0.3,3-1.2,5-4.2,5.5l0,0l41.3-8.6
					C94.5,20.6,100.3,16.7,94.9,10.2z"/>
				<path class="st26" d="M53.1,29.6c-0.2,0-0.3-0.1-0.4-0.3c0-0.2,0.1-0.4,0.3-0.5l0.6-0.1c2-0.5,3-2,3.3-5c0.1-1.5-0.5-3-1.9-4.1
					c-1.1-1-2.5-1.1-3-1.1c-0.2,0-0.2,0-0.2,0c-0.2,0-0.4-0.1-0.4-0.3c0-0.2,0.1-0.4,0.3-0.4l43.1-7.8c0.1,0,0.3,0,0.4,0.1
					c1.8,2.2,2.6,4.4,2.3,6.4c-0.4,2.8-2.8,4.4-2.9,4.5c0,0-0.1,0-0.1,0.1l-40.7,8.5C53.6,29.5,53.4,29.5,53.1,29.6
					C53.2,29.6,53.2,29.6,53.1,29.6z M54,18c0.5,0.2,1,0.5,1.5,0.9c1.6,1.3,2.4,3.1,2.2,4.8c-0.1,1.5-0.5,3.3-1.6,4.5l38.3-8
					c0.3-0.2,2.1-1.6,2.5-3.9c0.3-1.8-0.4-3.7-2-5.6L54,18z"/>
			</g>
			<path class="st8" d="M94.9,10.2l-2.8,0.5c0.7,0.5,1.2,1.2,1,2.2c-0.7,4-8.2,5.2-11.9,5.9c-6.8,1.3-22.8,3.9-23.9,4.1
				c0,0.2,0,0.5,0,0.7c-0.3,3-1.2,5-4.2,5.5l41.3-8.6C94.5,20.6,100.3,16.7,94.9,10.2z"/>
			<path class="st27" d="M96.3,12.2c0,0.8-0.2,1.6-0.5,2.3c-1.7,3.7-6.9,5.1-11.1,6c-7,1.5-25.7,5.1-27.9,5.7
				c-0.6,1.6-1.6,2.7-3.7,3l41.3-8.6C94.5,20.6,99.1,17.5,96.3,12.2z"/>
			<g>
				<path class="st4" d="M3,15.6c0,0,3.7,5.8,0,10.8l49.4,2.9c0,0,4.5-0.3,4.5-5.5c0-4.7-3.7-5.8-6.1-5.8C47.7,18,3,15.6,3,15.6z"/>
				<path class="st5" d="M52.5,29.5L52.5,29.5L2.7,26.6l0.2-0.3c3.5-4.8,0-10.5,0-10.6l-0.2-0.3l0.4,0c0.4,0,44.8,2.4,47.9,2.4
					c3,0,6.3,1.6,6.3,6C57.2,29.2,52.5,29.5,52.5,29.5L52.5,29.5z M3.4,26.2l49.1,2.9c0.3,0,4.3-0.4,4.3-5.3c0-5.2-4.5-5.6-5.9-5.6
					c-3,0-43.3-2.2-47.5-2.4C4,17.1,6.3,22,3.4,26.2z"/>
			</g>
			<path class="st6" d="M50.9,18c-0.1,0-0.3,0-0.6,0c1.9,0.7,3.1,2.1,2.2,4.8c-0.6,1.8-3.1,2.1-4.9,2.3c-3.8,0.3-7.5,0.5-11.2,0.4
				c-4.2-0.1-8.3-0.5-12.5-0.7c-3.1-0.2-6.2-0.1-9.3-0.7c-2.5-0.5-5.6-1.2-6.8-3.3c-0.7-1.2-1-2.5-1.8-3.6c-0.6-0.8-1.5-1.2-2.4-1.6
				c-0.4,0-0.6,0-0.6,0s3.7,5.8,0,10.8l49.4,2.9c0,0,4.5-0.3,4.5-5.5C57,19.1,53.2,18.1,50.9,18z"/>
			<g>
				<polygon class="st25" points="44.3,7 3,15.6 52.6,17.9 94.9,10.2 				"/>
				<path class="st26" d="M52.6,18.3C52.6,18.3,52.6,18.3,52.6,18.3L3,16c-0.2,0-0.4-0.2-0.4-0.4c0-0.2,0.1-0.4,0.3-0.4l41.3-8.6
					c0,0,0.1,0,0.1,0L95,9.9c0.2,0,0.4,0.2,0.4,0.4c0,0.2-0.1,0.4-0.3,0.4L52.6,18.3C52.7,18.3,52.7,18.3,52.6,18.3z M6.1,15.4
					l46.5,2.1l39.1-7.1l-47.4-3L6.1,15.4z"/>
			</g>
			<path class="st8" d="M47.9,10.4C46,9.5,43,9.2,41.7,9.1c-1.4-0.1-3.3-0.4-4.6-0.1c-7.5,1.6-14.9,3.4-22.3,5.1
				c-1.5,0.3-3,0.7-4.5,1.1c0,0,25.6,0.9,33.6,1.3c1.8-0.7,5.3-1.9,5.7-3.9C49.7,11.6,49,10.9,47.9,10.4z"/>
			<path class="st27" d="M44.3,7l-4.9,1C45,7.8,50.7,7.7,56.2,8.3c1.8,0.2,8.2,0.7,8.6,3.1c0.5,2.8-5.1,3.7-7.3,4.4
				c-2.9,0.8-5.9,1.4-8.9,2l4.1,0.2l42.3-7.7L44.3,7z"/>
			<path class="st7" d="M54.5,19c0.9,0.9,1.8,3.8,0.9,5.6c-1.3,2.6-4.7,3.1-7.9,3.1c-4.1,0-8.2-0.3-12.3-0.4
				c-4.7-0.1-9.3-0.1-14-0.4c-3.5-0.2-7.2-0.3-10.6-0.9c-2.3-0.4-3.9-1.4-4.6-3.4c-0.7-2.2-0.8-5-2.9-6.5c0.7,1.3,2.9,6.2-0.2,10.4
				l49.4,2.9c0,0,4.5-0.3,4.5-5.5C57,21.3,55.9,19.8,54.5,19z"/>
		</g>
		<path class="st5" d="M5.8,17.4c0,0,2.9,0.1,7.2,0.3c2.2,0.1,4.7,0.2,7.4,0.3c2.7,0.1,5.6,0.3,8.5,0.4c2.9,0.2,5.8,0.3,8.5,0.5
			c2.7,0.2,5.2,0.3,7.4,0.4c4.3,0.3,7.2,0.5,7.2,0.5s-2.9-0.1-7.2-0.3c-2.2-0.1-4.7-0.2-7.4-0.3c-2.7-0.1-5.6-0.3-8.5-0.4
			c-2.9-0.2-5.8-0.3-8.5-0.5c-2.7-0.2-5.2-0.3-7.4-0.4C8.6,17.6,5.8,17.4,5.8,17.4z"/>
		<path class="st5" d="M7.1,20.1c0,0,2.5,0.1,6.3,0.3c1.9,0.1,4.1,0.2,6.5,0.3c2.4,0.1,4.9,0.3,7.4,0.4c2.5,0.2,5.1,0.3,7.4,0.5
			c2.4,0.2,4.6,0.3,6.5,0.4c3.8,0.3,6.3,0.5,6.3,0.5s-2.5-0.1-6.3-0.3c-1.9-0.1-4.1-0.2-6.5-0.3c-2.4-0.1-4.9-0.3-7.4-0.4
			c-2.5-0.2-5.1-0.3-7.4-0.5c-2.4-0.2-4.6-0.3-6.5-0.4C9.6,20.3,7.1,20.1,7.1,20.1z"/>
		<path class="st5" d="M6.2,23.3c0,0,3,0.1,7.6,0.3c2.3,0.1,4.9,0.2,7.8,0.4c2.8,0.1,5.9,0.3,8.9,0.4c3,0.2,6.1,0.3,8.9,0.5
			c2.8,0.2,5.5,0.3,7.8,0.5c4.5,0.3,7.6,0.5,7.6,0.5s-3-0.1-7.6-0.3c-2.3-0.1-4.9-0.2-7.8-0.4c-2.8-0.1-5.9-0.3-8.9-0.4
			c-3-0.2-6.1-0.3-8.9-0.5c-2.8-0.2-5.5-0.3-7.8-0.5C9.2,23.5,6.2,23.3,6.2,23.3z"/>
		<path class="st5" d="M6.2,25.4c0,0,2.9,0.1,7.3,0.3c2.2,0.1,4.7,0.2,7.5,0.4c2.7,0.1,5.6,0.3,8.6,0.4c2.9,0.2,5.8,0.3,8.6,0.5
			c2.7,0.2,5.3,0.3,7.5,0.5c4.4,0.3,7.3,0.5,7.3,0.5s-2.9-0.1-7.3-0.3c-2.2-0.1-4.7-0.2-7.5-0.4c-2.7-0.1-5.6-0.3-8.6-0.4
			c-2.9-0.2-5.8-0.3-8.6-0.5c-2.7-0.2-5.3-0.3-7.5-0.5C9.1,25.6,6.2,25.4,6.2,25.4z"/>
		<path class="st8" d="M55.3,18.1l36.2-6.4C91.5,11.7,81.2,16.9,55.3,18.1z"/>
	</g>
</g>
</svg>
