<?xml version="1.0" encoding="utf-8"?>
<!-- Generator: Adobe Illustrator 24.3.0, SVG Export Plug-In . SVG Version: 6.00 Build 0)  -->
<svg version="1.1" id="Object" xmlns="http://www.w3.org/2000/svg" xmlns:xlink="http://www.w3.org/1999/xlink" x="0px" y="0px"
	 viewBox="0 0 1122 1122" style="enable-background:new 0 0 1122 1122;" xml:space="preserve">
<style type="text/css">
	.st0{fill:#616E7D;}
	.st1{fill:#AAD4C8;}
	.st2{fill:#82BFAB;}
</style>
<g>
	<path class="st0" d="M863.17,654.08v431.81c53.68-0.66,100.2-31.08,123.83-75.52c4.37,2.67,9.41,4.44,15.07,4.43h5.98
		c10.34,0.01,18.96-5.65,24.12-12.64c5.27-7.06,8.04-15.81,8.09-25.18v-34.73v-52.01V564.99h-16c-8.66,0-15.64-7.11-15.55-15.79
		c0.05-1.72,0.05-3.5,0.05-5.23c0-247.33-200.51-447.81-447.82-447.81c-247.3,0-447.81,200.48-447.81,447.81
		c0,1.73,0,3.51,0.04,5.23c0.12,8.68-6.87,15.79-15.57,15.79H81.64v411.99c0.03,9.37,2.75,18.11,8.07,25.18
		c5.17,6.99,13.78,12.65,24.11,12.64h6c5.2,0.01,9.92-1.43,14.04-3.71c23.74,44.06,70.12,74.15,123.58,74.81V654.08
		c-42.13,0.51-79.69,19.39-105.43,48.86V580.17c13.09-2.53,22.87-13.54,24.14-26.91l0.3-1.45l-0.04-4.75
		c0-106.22,43.02-202.23,112.62-271.86c69.63-69.61,165.68-112.61,271.9-112.62c106.21,0.01,202.22,43.01,271.86,112.62
		c69.61,69.63,112.6,165.67,112.6,271.89v3.22v0.14c0.03,14.61,10.39,27,24.44,29.72V704.4
		C944.14,674.07,905.95,654.59,863.17,654.08z"/>
	<path class="st1" d="M1024.26,564.99h16h14.25c8.5,0,15.49-6.82,15.64-15.33c0.03-1.9,0.03-3.79,0.03-5.69
		c0-281.26-228.02-509.26-509.24-509.26c-281.24,0-509.27,228-509.27,509.26c0,1.91,0.04,3.79,0.08,5.69
		c0.14,8.51,7.07,15.33,15.6,15.33h14.3H97.6c8.7,0,15.69-7.11,15.57-15.79c-0.04-1.72-0.04-3.5-0.04-5.23
		c0-247.33,200.51-447.81,447.81-447.81c247.32,0,447.82,200.48,447.82,447.81c0,1.73,0,3.51-0.05,5.23
		C1008.62,557.88,1015.6,564.99,1024.26,564.99z"/>
	<path class="st0" d="M24.36,896.95c0,28.48,22.91,51.6,51.35,51.94V791.08c-28.44,0.35-51.35,23.46-51.35,51.96V896.95z"/>
	<path class="st0" d="M1046.29,948.9c28.41-0.34,51.36-23.46,51.36-51.94v-53.92c0-28.5-22.94-51.61-51.36-51.96V948.9z"/>
	<path class="st2" d="M266.64,654.01v433.28h52.34c8.22,0,14.83-6.64,14.83-14.8V668.81c0-8.18-6.62-14.8-14.83-14.8H266.64z"/>
	<path class="st2" d="M785.89,668.81v403.68c0,8.17,6.62,14.8,14.79,14.8h52.38V654.01h-52.38
		C792.51,654.01,785.89,660.62,785.89,668.81z"/>
</g>
</svg>
