<?xml version="1.0" encoding="utf-8"?>
<!-- Generator: Adobe Illustrator 24.3.0, SVG Export Plug-In . SVG Version: 6.00 Build 0)  -->
<svg version="1.1" id="Object" xmlns="http://www.w3.org/2000/svg" xmlns:xlink="http://www.w3.org/1999/xlink" x="0px" y="0px"
	 viewBox="0 0 1122 1122" style="enable-background:new 0 0 1122 1122;" xml:space="preserve">
<style type="text/css">
	.st0{fill:#FCF8DB;}
	.st1{fill:#F5DE94;}
	.st2{fill:#E0B861;}
	.st3{fill:#D9CAA9;}
	.st4{fill:#BEBDAA;}
	.st5{fill:#8D2A2A;}
	.st6{fill:#742323;}
	.st7{fill:#A2A193;}
	.st8{fill:#F1F1E6;}
	.st9{fill:#B93232;}
	.st10{fill:#DAD9CC;}
</style>
<g>
	<g>
		<path class="st0" d="M973.95,308.03c-6.1-18.22-20.99-36.83-43.79-37.14c-1.44-10.78-10.14-27.5-22.09-34.52
			c3.74-57.66-49.62-75.19-94.08-66.83c-3.87-7.58-11.06-18.35-22.57-21.59c-3.5-33.58-38.58-64.92-74.87-60.51
			c-20.83-55.25-131.6-63.17-135.01,7.91c-19.04-12.45-44.71-20.46-67.43-5.12C489.31,16.96,350,33.82,375.79,118.49
			c-11.39,5.51-23.93,15.47-31.33,29.15c-65.64-15.26-87.01,39.36-80.04,89.17c-16.81,0.67-36.46,23.08-40.61,40.62
			c0.34,0.23,0.68,0.49,1.02,0.74c-3.09,1.14-5.99,2.92-8.55,5.14c-45.06-19.37-65.91,9.71-59.39,52.17
			c12.8,129.5,406.32,223.05,471.65,229.29c15.79-1.02,5.65,4.87,22.93-3.9c55.15-31.55,101.25-56.6,141.94-78.81
			C936.01,404.23,988.68,374.36,973.95,308.03z"/>
		<path class="st0" d="M579.14,412.78c-48.82-34.74-97.42,50.76-13.16,41.9c-45.91-22.54-14.41-8.35,16.84-17.9
			C582.01,432.81,579.48,431.43,579.14,412.78z"/>
		<path class="st0" d="M782.62,142.04c-0.08-0.54-0.18-1.07-0.27-1.6c0,0.56,0.06,1.12,0.05,1.68
			C782.47,142.08,782.55,142.08,782.62,142.04z"/>
		<path class="st0" d="M637.49,174.75c-0.13,0.27-0.18,0.49-0.2,0.64c0.09-0.23,0.17-0.46,0.22-0.69
			C637.5,174.72,637.49,174.74,637.49,174.75z"/>
		<path class="st0" d="M637.57,174.52c-0.01,0.06-0.05,0.12-0.06,0.19C637.52,174.67,637.54,174.66,637.57,174.52z"/>
		<path class="st0" d="M637.54,174.63c-0.01,0.02,0,0-0.03,0.07C637.42,175,637.05,176.21,637.54,174.63z"/>
		<path class="st1" d="M176.24,354.72c1.11,2.08,14.79,2.95,20.64,28.16c-5.29,16.68,17.57,38.25,22.68,9.63
			c60.56-15.52,23.94-21.83,61.84,23.47c66.08-15.01,61.14,49.47,97.74,20.25c18.12,23.07,53.22,31.08,80.83,12.35
			c8.98,9.04,21.49,22.89,40.64,24.95c5.23,34.4,38.53,20.58,64,40.14c35.79,42.28,37.12,31.66,56.72-21.65
			c2.22-0.52,4.66-10.88,13.28-8.55c8.14,4.72,17.7,33.27,32.9,15.88c-1.73,2,4.11-4.21,10-3.37c8.55,3.93,19.71-7.23,4.76-16.51
			c10.78-2.96,20.32-14.31,29.24-24.77c-21.56,20.32,25.32,58.7,22.51,15.48c7.52-4.86,20.24-10.5,22.92-25.43
			c31.21,22.93,58.34-23.47,77.95-49.28c-1.66,8.86,15.26,41.01,27.61,23.49c2.23-1.16,3.03,0.05,4.02-5.03
			c8.33-35.46,132.87-15.79,46.21-70.58c-12.24-25.76-54.39-10.73-76.18-15.69c0.5,0.75-0.51-2.29-0.61-1.93
			c-0.06-7.45,2.5-18.16,17.99-25.11c13.93-8.15,35.06,2.88,46.61,9.32c-1.94-8.6-7.56-21.19-21.4-28.3
			c2.73-1.62-5.09-1.51,20.07-17.65c4.29-0.33,15.87-8.98,24.58,0.37c-4.84-7.04-11.75-11.32-19.5-13.45
			c0.99-2.6,1.75-5.29,2.38-8.02c-0.37-0.05-0.73-0.14-1.11-0.17c8.47-11.33-101.14,24.5-57.2-71.22c-9.5,0.6-18.88,3.26-27.2,7.97
			c-0.32-0.74-0.76-1.41-1.12-2.13c18.59,103.4-87.96,21.83-30.6-23.57c-2.04-0.39-4.08-0.67-6.13-0.76
			c0.07-3.68-0.17-7.34-0.68-10.96c-0.07,0.03-0.15,0.04-0.22,0.07c-1.91-17.99-15.58-40.9-38.27-45.24
			c18.99,14.29,28.14,45.06,11.15,69.64c0.9-14.13-13.33-38.29-33.01-35.24c-41.18,26.76-147.83,20.15-101.53-55.59
			c59.45-40.97,100.48,9.54,92.64,55.34c57.11-71.17-88.87-109.49-125.82-18.85c-5.72-6.74-17.03-15.97-29.72-18.14
			c1.24,3.61,19.34,10.86,25.29,39.21c-13.18-0.8-26.67,4.11-36.13,13.43c-1.56-0.58,0.75-2.65-8.04-3.5
			c0.69-14.83-1.12-30.34-9.17-47.07c-4.07,1.4-8.01,3.18-11.75,5.39c-1.47-6.7-3.99-13.09-7.36-18.93
			c4.5,12.95,18.77,100.68-16.62,74.64c-3.99-12.27-11.37-21.45-25.34-22.79c-18.04-0.42-15.59,15.72-37.58-8.39
			c-12.98-9.27-22.21,2.43-28.76-21.86c-0.82,8.61,0.23,17.33,3.09,25.43c-3.64,1.06-7.1,2.65-10.4,4.54
			c6.75,9.52,17.68,19.38,33.15,26.1c0.05,5.95-6.83,1-7.7,16.55c-11.29,2.45-24.04,18.55-26.25,33.84
			c-2.86-2.15-6.13-3.51-9.67-4.11c13.2-86.37-121.27-44.26-99.69-20.77c118.88-52.74,42.81,56.8,93.78,46.48
			c0,6.74,2.56,6.38-4.04,20.5c-44.52-33.81-27.28,9.1-71.62-2.36c-1.53-0.66-6-3.1-9.34-6.38c-5.68-7.55-0.52-27.27-21.6-27.47
			c-0.05,5.9,0.52,11.81,1.95,17.56c-3.48,0.27-6.91,1-10.29,1.95c2.03,0.49,4.07,0.94,6.11,1.39c-0.69,9.26,5.83,23.01,15.71,30.91
			c-25.87,1.54-39.56,16.68-24.34,43.66c-5.22-1.88-7.5-3.51-17.61-5.05c-2.44-9.74-8.67-21.66-19.82-29.52
			c-0.58,1.88-1.12,3.77-1.59,5.69c-3.99-1.5-8.25-2.18-12.56-2.33c6.78,5.9,14.62,13.74,18.58,28.27
			c-10.59,3.5-24.38,8.94-30.25,23.57c-9.11-3-18.56-7.07-33.52-6.39C165.56,332.81,165.12,350.33,176.24,354.72z M582,437.34
			c-7.04,9.91-38.78-4.55-40.6,4.13c2.45,1.39,10.67,9.43,24.59,13.2c-106.48,9.19,7.15-107.25,16.84-17.9
			C582.56,437,582.24,437.1,582,437.34z M598.51,355.78c-9.48,61.36-50.62,10.25-81.9,40.05c-35.16-6.9-22.27-61.69,20.13-40.27
			c-11.93,49.04,60.31-13.62-12.45-24.47c-9.6-6.21,2.23-23.21,24.7-21.01c16.06,4.78,24.46,21.21,46.94,18.65
			C593.18,330.33,599.29,335.39,598.51,355.78z M693.45,419.43c-1.7,7.82,6.79,5.52-6.51,28.56c0.05-0.11,0.08-0.17,0.14-0.31
			c-1.82,2.2-1.23,1.56-5.56,5.35c-6.62-48.09-70.18-48.68-64.7-3.27c-51.04-66.07,40.06-87.68,79.08-65.86
			C691.72,390.69,683.18,407.65,693.45,419.43z M648.09,298.03c0.61,0.85,1.29,1.65,1.91,2.49c0.83,1.42-0.39,2.84-4.07,4.3
			c-22.14,21.7,41.18,20.25,12.31-16.79c0.6,0.96-0.28-0.23-0.2-1.85c2.34-5.25,0.41-5.54,15-12.65
			c101.64,124.21-154.44,85.44-22.45-9.44c2.3,1.09,4.6,2.22,6.89,3.39C649.78,272.53,639.79,284.64,648.09,298.03z M807.49,248.49
			c31.69-9.08,92.75,21.02,25.88,37.24c-3.79-21.48-9.91-26.5-35.99-30.31C800.07,252.6,803.33,250.24,807.49,248.49z
			 M791.56,280.57c1.43-13.03,27.23-17.84,36.2,9.64c-9.85,8.74-19.16,27.68-14.46,43.69C799.71,329.57,777.83,319.79,791.56,280.57
			z M782.15,386.38c5.81,10.54,4.03,35.25-16.87,34.16c0.26-0.06,0.52-0.12,0.77-0.18c0.03,0.29-20.52-1.25-11.05,10.19
			c-0.33,0.44-0.51,0.95-0.77,1.42c-1.24-1.2-0.23-1.99-5.79-5.37c1.9,0.33,10.94-22.03-0.96-8.63
			c-33.76,31.24-78.02-31.21-15.09-40.51c18.19,0.75,16.1,13.51,44.08,2.44C779.44,382.17,778.85,380.41,782.15,386.38z
			 M766.8,308.21c-2.24,45.49,33.65,35.4-6.86,60.05c-10.72-3.31-8.9-27.01-26.89-26.7c-40.05,15.32,8.26,3.39,14.13,24.67
			c-15.26-4.69-39.03-4.46-49.56,14.9c-2.55-4.5-5.79-8.6-9.49-12.24C733.15,347.75,696.11,256.53,766.8,308.21z M740.21,208.44
			c2.29,1.87,3.48,7.79,15.93,9.13c-48.96,180.71-110.91-55.36-46.99,24.44C727.57,253.72,719.12,194.13,740.21,208.44z
			 M635.77,181.27c0.24-1.05,0.04-1.34,1.8-6.75c-0.01,0.06-0.02,0.07-0.03,0.12c3.17-9.89,12.08-13.84,29.01-13.24
			c-0.8,5.86,0.49,11.6,0.89,17.36c-11.08-0.36-22.4-1.45-31.72,3.02C635.73,181.61,635.75,181.44,635.77,181.27z M630.72,219.59
			c2.29-40.97,35.8-16.29,52.3-25.9c9.15-7.53-6.78-29.05,6.64-34.42c32.65,9.15,50.93-40.4,45.54,33.12
			c-9.71,0.8-22.28,14.64-24.93,28.1c-24.55-35.87-49.07,10.68-38.29,38.77c-8.61-13.29-24.91-20.7-41.15-24.4
			C630.7,229.84,630.47,224.65,630.72,219.59z M646.64,262.26c-20.08,5.96-38.73,22.59-42.91,46.39
			c-48.37,16.52-58.21-54.02-21.76-69.58C589.41,265.99,625,246.74,646.64,262.26z M514.7,217.91
			c77.52-23.62,13.53-90.33,105.17-49.15c7.1,25.07-17.96,34.97-30.68,54.97c-4.99-2.9-19.72-3.09-28.1,7.64
			c-1.37-8.31-32.41,7.43-46.69-8.93c0.13,0.67-0.08-2.02-0.06-3.27C514.4,219.23,514.73,218.03,514.7,217.91z M493.36,272.58
			c9.99-12.76,27.94-23.02,52.08-7.5c-2.18,6.04-5.17,18.21-1.4,29.39c-11.49-2.51-32.13,2.13-40.01,16.73
			c-1.97-2.15-4.14-4.12-6.38-5.97c4.04-7.39,3.87-22.83-5.2-31.58C492.77,273.29,493.12,272.92,493.36,272.58z M497.72,329.58
			c-2.93,3.38-3.87,4.26-13.05,16.35c0.03-0.01,0.06-0.02,0.09-0.02c-1.44,1.96-0.97,0.29-0.18,5c-4.63,6.98-10.37,21.29-9.98,32.46
			c-17.3-3.55-34.05,85.73-86.55,18.59c47.32-12.16,4.3-42.93,33.86-45.59C472.94,366.26,449.7,275.59,497.72,329.58z
			 M435.67,173.51c2.98-2.41,5.21-5.91,6.77-9.39c6.26,0.67,15.86,0.7,25.85-4.37c2.21,3.08,0.48,7.51,11.86,20.24
			c-13.53,6.57-28.6-3.43-47.34-4.36C433.83,174.95,434.79,174.22,435.67,173.51z M413.95,207.72c4.73-26.59,61.5-2.71,71.93,19.92
			c3.23,41.09-54.21,16.73-68.19-8.35C417.35,217.07,415.47,215.5,413.95,207.72z M393.73,291.64c30.32-43.37,43.14,9.91,72.63-2.8
			c0.64-0.61,10.26-1.9,8.71,6.84c-17.93-3.04-30.76,27.19-52.72,24.78c-1.81-0.45-0.01,0.04-5.62-1.8
			c-1.08,0.42-7.19-3.98-25.6-20.92C391.91,295.67,392.7,293.6,393.73,291.64z M336.31,281.54c3.11-3.72,2.97-3,11.52-19.36
			c-1.21,1.48,55.52,18.38,1.23,45.23c-3.17-1.76-11.28-4.38-19.34-1.72c-0.01-5.28,0.37-9.46-3.88-18.56
			C329.77,286.33,333.47,284.44,336.31,281.54z M337.19,344.57c-2.48,0.14,0.13,0.34-9,0.98c3.14-3.05-10.2-33.2,11.62-21.93
			C338.85,327.57,337.32,329.53,337.19,344.57z M316.52,366.48c57.18-3.94,26.7-14.05,47.86-48.37c45.49,7.92,30.07,29.18,30,62.94
			c-10.43,0.48-21.91,9.27-24.39,23.42c-4.04-1.22-7.57-0.42-11.09,1.12c-7.4-21.45-37.69-36.89-61.7-21.2
			c-0.38-2.5-1.19-4.44-0.35-13.7C300.05,369.79,306.08,368.28,316.52,366.48z M215.64,335.28c21.09-12.62,89.29,12.7,59.01-43.35
			c1.29-0.89-0.64-1.42,8.65-3.2c38.77-2.97,23.46,26.23,24.78,55.84c-8.32,6.31-26,6.48-29.95,21.31
			c-11.76-11.1-33.8-14.69-49.98-2.03C228.05,354.68,213.68,348.28,215.64,335.28z"/>
		<path class="st2" d="M434.67,367.71c-5.42-0.07-3.24-3-16.82,0.56c-11.61,2.78-66.43,64.52-18.07,43.78
			C441.71,404.95,401.31,382.46,434.67,367.71z"/>
		<path class="st2" d="M596.73,370.31c-0.99-6.92-16.27-13.99-22.09-0.58l0.45-1.07c-0.07,4.17-10.29,11.27-16.59,10.35
			C531.9,392.14,594.8,406.88,596.73,370.31z"/>
		<path class="st2" d="M683.71,187.62c-1.42-1.65-2.86-46.54-15.03-6.43c1.89-1.83-5.53,6.11-8.16,12.38
			c-13.4-8.78-51.16,33.35-15.32,18.76C640.25,206.87,685.28,241.19,683.71,187.62z"/>
		<path class="st2" d="M713.72,123.62c-3.74-21.9-4.63-6.12-20.01,5.77c0.84-0.73,0.53-0.23-2.54,1.53
			c-17.56-1.72-83.87,30.87-24.38,26.44c2.96-0.44,3.74-0.54,2.34-0.29C686.44,159.25,715.36,150.23,713.72,123.62z"/>
		<g>
			<path class="st2" d="M819.24,322.51c-0.12-0.17-32.82-22.43-15.71-40.81c-0.52,0.6,0.41-0.08-0.03,0.18
				c6.96-3.01,10.35-13.41-6.69-11.89C743.74,289.62,805.53,359.02,819.24,322.51z"/>
			<path class="st2" d="M806.73,311.59c-0.07-0.09-0.17-0.16-0.26-0.25C806.56,311.42,806.47,311.34,806.73,311.59z"/>
		</g>
		<path class="st2" d="M852.08,332.92c-5.61-0.98-13.42-3.43-20.23,6.06l0.15-0.2c-0.36,0.35-0.27,0.26-0.89,0.87
			c0.06-0.05,0.12-0.09,0.18-0.14C815.11,350.96,846.29,397.27,852.08,332.92z"/>
		<path class="st2" d="M501.04,219.75c6.2-14.95-62.32-46.06-29.49-14.4C476.71,209.23,494.54,267.82,501.04,219.75z"/>
		<path class="st2" d="M487.2,136.98c0.45-12.07-10.13-25.69-34.96-9.6c-4.04-0.16-2.78,0.54-11.57-1.99
			c-4.56-3.3-14.27-1.01-5.66,10.3c7.2,10.7,36.02,13.28,50.6,4.62C484.59,141.21,485.49,141.09,487.2,136.98z"/>
		<path class="st2" d="M365.22,214.69c-0.11-10.06-17.39-38.41-19.07,2.19c0.06-0.13,0.11-0.26,0.17-0.39
			C339.15,230.39,367,242.31,365.22,214.69z"/>
		<path class="st3" d="M973.95,308.03c-6.35-18.96-22.21-38.35-46.6-37.1c-2.91-7.76-11.74-17.11-23.06-20.03
			c15.81-40.39-15.38-84.72-58.21-79.13c37.39,8.89,43.92,72.99,0.97,81.2c0.31,14.63-6.53,31.43-26.08,35.58
			c-4,95.09-114.78-6.85-32.28-19.84c-4.29-15.38,4.64-21.67,19.34-34.81c-5.3-7.53-8.42-18.19-4.9-32.25
			c-3.67,2.04-11.17,5.43-20.61,6.14c20.25,23.05-19.33,65.27-37.78,30c-0.93,18.94-14.77,33.73-31.85,37.34
			c2.38,15.28-9.71,52.55-34.42,35.9c-2.17,13.77-18.15,30.84-36.36,23.5c4.37,41.01-63,70.3-81.08,28.32
			c-12.53,8.88-28.33,11.15-41.05,5.03c-1.83,2.78-2.33,5.81-9.81,18.89c43.26,47.18-89.39,69.33-40.43,8.79
			c-22.66,21.78-51.53,51.98-75.54,11.2c-24.07,16.61-74.43,4.51-78.37-31.51c-12.11,6.3-37.14,5.96-39.05-12.91
			c-1.14-5.84-2.98-6.25-10.16-15.92c-26.13-0.87-107.62-2-93.5-48.4c-67.93,165.64,360.72,237.81,449.37,270.44
			c25.46,2.14,44-17.46,67.6-29.23C884.38,426.01,994.85,394.18,973.95,308.03z M687.68,395.86c0.06,45.16-84.96,40-72.35-4.24
			C622.91,358.14,722.47,347.95,687.68,395.86z M807.13,397.41c-101.6,72.43-129.34,1.21-85.08-24.69
			c-53.95,0.04-18.57-60.42,17.74-59.89c37,8.23,25.49,42.81-2.9,54.87c6.09-0.95,17.51-1.22,27.58,2.44
			C768.37,317.01,843.74,344.4,807.13,397.41z M876.28,338.44c-34.67,13.52-58.21-18.89-21.06-39.78
			C892.5,280.27,913.15,325.25,876.28,338.44z"/>
	</g>
	<g>
		<g>
			<path class="st4" d="M546.55,1054.38c11.54,3.22,23.14,6.42,34.8,9.61c8.2,2.24,16.38,4.45,24.54,6.64
				c-1.46-177.46-2.93-354.93-4.39-532.39c-1.21-6.94-10.51-56.7-41.2-67.23c-3.36-1.15-10.71-3.42-18.07-0.6
				c-11.45,4.38-18.62,18.62-17.57,38.53C531.96,690.75,539.26,872.56,546.55,1054.38z"/>
			<path class="st5" d="M488.43,1034.58c19.33,6.41,38.82,12.86,58.13,19.8c-7.3-181.82-14.59-363.63-21.89-545.45
				c-1.54-29.04-19.98-59.14-41.2-67.23h0c-21.22-8.09-37.17,8.89-35.64,37.92C461.36,664.61,474.89,849.6,488.43,1034.58z"/>
			<path class="st4" d="M435.99,1016.71c3.26,1.14,6.53,2.29,9.79,3.43c14,4.92,28.29,9.67,42.66,14.44
				c-13.53-184.99-27.07-369.97-40.6-554.96c-1.54-29.04-19.98-59.14-41.2-67.23c-21.22-8.09-37.18,8.89-35.64,37.92
				C392.65,639.12,414.32,827.91,435.99,1016.71z"/>
			<path class="st5" d="M381.5,997.27c18.1,6.66,36.3,13.07,54.49,19.44c-21.67-188.8-43.33-377.6-65-566.39
				c-1.54-29.04-19.98-59.14-41.2-67.23c-21.22-8.09-37.18,8.89-35.64,37.92C323.26,613.1,352.38,805.18,381.5,997.27z"/>
			<path class="st4" d="M329.19,976.78c17.23,7.31,34.72,14.01,52.31,20.48c-29.12-192.09-58.23-384.17-87.35-576.26
				c-1.54-29.04-19.98-59.14-41.2-67.23h0c-21.22-8.09-37.17,8.89-35.64,37.92c35.4,194.16,70.79,388.33,106.19,582.49
				C325.4,975.07,327.31,975.99,329.19,976.78z"/>
			<path class="st5" d="M323.5,974.19C288.1,780.03,252.7,585.87,217.31,391.7c-1.53-29.04-19.98-59.14-41.2-67.23
				c-21.22-8.09-37.18,8.89-35.64,37.92c41.67,194.85,83.34,389.71,125.01,584.56C285.38,953.97,304.9,965.64,323.5,974.19z"/>
		</g>
		<g>
			<path class="st6" d="M635.79,471.33c-5.45-1.55-10.52,0.23-13.33,1.39c-14.96,6.18-23.89,24.06-29.06,39.97v31.48
				c0,7.03-2.28,13.33-6.07,18.45c1.62,170.28,3.24,340.56,4.87,510.84c14.02-5.79,28.04-11.58,42.06-17.37
				c6.26-181.82,12.52-363.63,18.78-545.45C654,489.31,646.86,474.48,635.79,471.33z"/>
			<path class="st7" d="M684.12,1036.3c-16.58,6.41-33.31,12.86-49.87,19.8c6.26-181.82,12.52-363.63,18.78-545.45
				c1.32-29.04,17.14-59.14,35.34-67.23h0c18.2-8.09,31.89,8.89,30.58,37.92C707.34,666.33,695.73,851.31,684.12,1036.3z"/>
			<path class="st6" d="M729.11,1018.43c-2.8,1.14-5.6,2.29-8.4,3.43c-12.01,4.92-24.27,9.67-36.59,14.44
				c11.61-184.99,23.22-369.97,34.83-554.96c1.32-29.04,17.14-59.14,35.34-67.23c18.2-8.09,31.89,8.89,30.58,37.92
				C766.29,640.83,747.7,829.63,729.11,1018.43z"/>
			<path class="st7" d="M775.86,998.99c-15.53,6.66-31.14,13.07-46.75,19.44c18.59-188.8,37.17-377.6,55.76-566.39
				c1.32-29.04,17.14-59.14,35.35-67.23c18.2-8.09,31.89,8.89,30.58,37.92C825.81,614.81,800.84,806.9,775.86,998.99z"/>
			<path class="st6" d="M820.73,978.5c-14.78,7.31-29.79,14.01-44.87,20.48c24.98-192.09,49.96-384.17,74.93-576.26
				c1.32-29.04,17.14-59.14,35.34-67.23h0c18.2-8.09,31.89,8.89,30.57,37.92c-30.37,194.16-60.73,388.33-91.1,582.49
				C823.98,976.78,822.34,977.7,820.73,978.5z"/>
			<path class="st7" d="M825.61,975.91c30.37-194.16,60.73-388.33,91.1-582.49c1.32-29.04,17.14-59.14,35.34-67.23
				c18.2-8.09,31.89,8.89,30.58,37.92c-35.75,194.85-71.5,389.71-107.25,584.56C858.31,955.68,841.56,967.36,825.61,975.91z"/>
		</g>
		<g>
			<path class="st8" d="M539.16,1061.82c11.54,3.22,23.14,6.42,34.8,9.61c8.2,2.24,16.38,4.45,24.54,6.64
				c-1.46-177.46-2.92-354.93-4.39-532.39c-1.21-6.94-10.51-56.7-41.2-67.23c-3.36-1.15-10.71-3.42-18.07-0.6
				c-11.45,4.38-18.62,18.62-17.57,38.53C524.57,698.19,531.87,880,539.16,1061.82z"/>
			<path class="st9" d="M481.03,1042.02c19.33,6.41,38.82,12.86,58.13,19.8c-7.3-181.82-14.59-363.63-21.89-545.45
				c-1.54-29.04-19.98-59.14-41.2-67.23h0c-21.22-8.09-37.17,8.89-35.64,37.92C453.97,672.05,467.5,857.04,481.03,1042.02z"/>
			<path class="st8" d="M428.59,1024.15c3.26,1.14,6.53,2.29,9.79,3.43c14,4.92,28.29,9.67,42.66,14.44
				c-13.53-184.99-27.07-369.97-40.6-554.96c-1.53-29.04-19.98-59.14-41.2-67.23c-21.22-8.09-37.18,8.89-35.64,37.92
				C385.26,646.56,406.93,835.35,428.59,1024.15z"/>
			<path class="st9" d="M374.1,1004.71c18.1,6.66,36.3,13.07,54.49,19.44c-21.67-188.8-43.33-377.6-65-566.39
				c-1.54-29.04-19.98-59.14-41.2-67.23c-21.22-8.09-37.18,8.89-35.64,37.92C315.87,620.54,344.99,812.62,374.1,1004.71z"/>
			<path class="st8" d="M321.8,984.23c17.23,7.31,34.72,14.01,52.31,20.48c-29.12-192.09-58.23-384.17-87.35-576.26
				c-1.54-29.04-19.98-59.14-41.2-67.23h0c-21.22-8.09-37.17,8.89-35.64,37.92c35.4,194.16,70.79,388.33,106.19,582.49
				C318,982.51,319.92,983.43,321.8,984.23z"/>
			<path class="st9" d="M316.1,981.63c-35.4-194.16-70.79-388.33-106.19-582.49c-1.54-29.04-19.98-59.14-41.2-67.23
				c-21.22-8.09-37.18,8.89-35.64,37.92c41.67,194.85,83.34,389.71,125.01,584.56C277.99,961.41,297.51,973.08,316.1,981.63z"/>
		</g>
		<g>
			<path class="st5" d="M640.56,1060.7c-14.02,5.79-28.04,11.58-42.06,17.37c-1.69-177.84-3.39-355.68-5.08-533.51
				c1.11-7.71,8.59-56.18,35.35-67.23c2.81-1.16,7.88-2.94,13.33-1.39c11.08,3.15,18.22,17.98,17.25,39.32
				C653.08,697.06,646.82,878.88,640.56,1060.7z"/>
			<path class="st4" d="M690.43,1040.9c-16.58,6.41-33.31,12.86-49.87,19.8c6.26-181.82,12.52-363.63,18.78-545.45
				c1.32-29.04,17.14-59.14,35.34-67.23h0c18.2-8.09,31.89,8.89,30.58,37.92C713.65,670.93,702.04,855.91,690.43,1040.9z"/>
			<path class="st5" d="M735.42,1023.03c-2.8,1.14-5.6,2.29-8.4,3.43c-12.01,4.92-24.27,9.67-36.59,14.44
				c11.61-184.99,23.22-369.97,34.83-554.96c1.32-29.04,17.14-59.14,35.34-67.23c18.2-8.09,31.89,8.89,30.58,37.92
				C772.59,645.43,754,834.23,735.42,1023.03z"/>
			<path class="st4" d="M782.16,1003.58c-15.53,6.66-31.14,13.07-46.75,19.44c18.59-188.8,37.17-377.6,55.76-566.39
				c1.32-29.04,17.14-59.14,35.35-67.23c18.2-8.09,31.89,8.89,30.58,37.92C832.12,619.41,807.14,811.5,782.16,1003.58z"/>
			<path class="st5" d="M827.04,983.1c-14.78,7.31-29.79,14.01-44.87,20.48c24.98-192.09,49.96-384.17,74.93-576.26
				c1.32-29.04,17.14-59.14,35.35-67.23h0c18.2-8.09,31.89,8.89,30.57,37.92c-30.37,194.16-60.73,388.33-91.1,582.49
				C830.29,981.38,828.65,982.3,827.04,983.1z"/>
			<path class="st4" d="M831.92,980.51c30.37-194.16,60.73-388.33,91.1-582.49c1.32-29.04,17.14-59.14,35.34-67.23
				c18.2-8.09,31.89,8.89,30.58,37.92c-35.75,194.85-71.5,389.71-107.25,584.56C864.62,960.28,847.87,971.95,831.92,980.51z"/>
		</g>
		<path class="st10" d="M858.3,684.9c-19.34,23.83-45.11,50.96-78.7,76.91c-68.8,53.15-138.12,76.4-183.28,87.28
			c0.73,76.33,1.45,152.65,2.18,228.98c14.02-5.79,28.04-11.58,42.06-17.37c16.56-6.94,33.28-13.39,49.87-19.8h0
			c12.33-4.77,24.58-9.51,36.59-14.44c2.8-1.15,5.6-2.29,8.4-3.43c15.6-6.37,31.21-12.78,46.75-19.44
			c15.09-6.47,30.09-13.17,44.87-20.48c1.61-0.8,3.25-1.72,4.88-2.59c15.95-8.55,32.7-20.23,49.77-27.23
			c33.36-181.81,66.71-363.62,100.07-545.42C940.61,500.2,899.45,592.55,858.3,684.9z"/>
	</g>
</g>
</svg>
