<?xml version="1.0" encoding="utf-8"?>
<!-- Generator: Adobe Illustrator 24.3.0, SVG Export Plug-In . SVG Version: 6.00 Build 0)  -->
<svg version="1.1" id="Object" xmlns="http://www.w3.org/2000/svg" xmlns:xlink="http://www.w3.org/1999/xlink" x="0px" y="0px"
	 viewBox="0 0 1122 1122" style="enable-background:new 0 0 1122 1122;" xml:space="preserve">
<style type="text/css">
	.st0{fill:#302A4D;}
	.st1{fill:url(#SVGID_1_);}
	.st2{fill:url(#SVGID_2_);}
	.st3{fill:url(#SVGID_3_);}
	.st4{opacity:0.67;}
	.st5{fill:url(#SVGID_4_);}
	.st6{fill:url(#SVGID_5_);}
	.st7{fill:url(#SVGID_6_);}
	.st8{fill:url(#SVGID_7_);}
	.st9{fill:url(#SVGID_8_);}
	.st10{fill:url(#SVGID_9_);}
	.st11{opacity:0.5;}
	.st12{fill:url(#SVGID_10_);}
	.st13{fill:#34A59D;}
	.st14{opacity:0.6;fill:url(#SVGID_11_);}
	.st15{opacity:0.6;fill:url(#SVGID_12_);}
	.st16{opacity:0.6;fill:url(#SVGID_13_);}
	.st17{opacity:0.6;fill:url(#SVGID_14_);}
	.st18{fill:#F35B74;}
	.st19{fill:url(#SVGID_15_);}
	.st20{opacity:0.6;fill:url(#SVGID_16_);}
	.st21{opacity:0.6;fill:url(#SVGID_17_);}
	.st22{opacity:0.6;fill:url(#SVGID_18_);}
	.st23{opacity:0.6;fill:url(#SVGID_19_);}
	.st24{fill:url(#SVGID_20_);}
	.st25{opacity:0.6;fill:url(#SVGID_21_);}
	.st26{fill:url(#SVGID_22_);}
	.st27{opacity:0.6;fill:url(#SVGID_23_);}
	.st28{fill:url(#SVGID_24_);}
	.st29{fill:url(#SVGID_25_);}
	.st30{fill:url(#SVGID_26_);}
</style>
<g>
	<path class="st0" d="M150.89,1091.91c-48.72,0-88.35-39.63-88.35-88.35V620.27c0-48.72,39.63-88.35,88.35-88.35h820.22
		c48.72,0,88.35,39.63,88.35,88.35v383.29c0,48.72-39.63,88.35-88.35,88.35H150.89z M150.89,550.47c-38.49,0-69.8,31.31-69.8,69.8
		v383.29c0,38.49,31.31,69.8,69.8,69.8h820.22c38.49,0,69.8-31.31,69.8-69.8V620.27c0-38.49-31.31-69.8-69.8-69.8H150.89z"/>
	<path class="st0" d="M217.88,132.09c-1.31,0-2.56-0.56-3.44-1.53c-0.88-0.98-1.31-2.28-1.17-3.59l0.53-5.12
		c5.41-52.31,49.14-91.77,101.73-91.77h490.93c52.59,0,96.32,39.45,101.73,91.77l0.53,5.12c0.14,1.3-0.29,2.61-1.17,3.59
		c-0.88,0.97-2.13,1.53-3.44,1.53H217.88z M888.06,113.54c-8.64-37.92-42.12-64.9-81.59-64.9H315.53
		c-39.47,0-72.95,26.98-81.59,64.9H888.06z"/>
	<path class="st0" d="M167.55,545.84c-21.27,0-38.58-17.3-38.58-38.57V124.41c0-21.27,17.31-38.57,38.58-38.57h786.91
		c21.27,0,38.58,17.3,38.58,38.57v382.85c0,21.27-17.31,38.57-38.58,38.57H167.55z M167.55,103.6c-11.49,0-20.84,9.34-20.84,20.82
		v382.85c0,11.48,9.35,20.82,20.84,20.82h786.91c11.49,0,20.83-9.34,20.83-20.82V124.41c0-11.48-9.34-20.82-20.83-20.82H167.55z"/>
	<g>
		<g>
			<linearGradient id="SVGID_1_" gradientUnits="userSpaceOnUse" x1="-1223.8557" y1="811.914" x2="1996.3674" y2="811.914">
				<stop  offset="0" style="stop-color:#5A617A"/>
				<stop  offset="0.1579" style="stop-color:#555B73"/>
				<stop  offset="0.6487" style="stop-color:#484C60"/>
				<stop  offset="1" style="stop-color:#43475A"/>
			</linearGradient>
			<path class="st1" d="M971.11,545.84H150.89c-41.05,0-74.44,33.39-74.44,74.44v383.29c0,41.05,33.39,74.44,74.44,74.44h820.22
				c41.05,0,74.44-33.39,74.44-74.44V620.27C1045.55,579.23,1012.16,545.84,971.11,545.84z M866.35,615.79
				c21.15,0,38.36,17.21,38.36,38.36c0,21.15-17.21,38.36-38.36,38.36c-21.15,0-38.35-17.2-38.35-38.36
				C828,633,845.2,615.79,866.35,615.79z M737.28,609.28c15.44,0,28,12.56,28,28c0,15.44-12.56,28-28,28
				c-15.44,0-28.01-12.56-28.01-28C709.27,621.85,721.83,609.28,737.28,609.28z M661.66,609.28c15.45,0,28.01,12.56,28.01,28
				c0,15.44-12.56,28-28.01,28c-15.44,0-28-12.56-28-28C633.66,621.85,646.23,609.28,661.66,609.28z M370.61,609.28
				c15.44,0,28,12.56,28,28c0,15.44-12.56,28-28,28c-15.44,0-28-12.56-28-28C342.61,621.85,355.18,609.28,370.61,609.28z
				 M215.57,758.15c-38.75,0-70.29-31.53-70.29-70.29c0-38.75,31.53-70.28,70.29-70.28s70.28,31.53,70.28,70.28
				C285.85,726.62,254.33,758.15,215.57,758.15z M380.04,997.27c-48.94,0-88.76-39.82-88.76-88.77c0-48.94,39.81-88.76,88.76-88.76
				c48.94,0,88.77,39.81,88.77,88.76C468.81,957.45,428.99,997.27,380.04,997.27z M446.22,665.28c-15.44,0-28-12.56-28-28
				c0-15.44,12.56-28,28-28c15.45,0,28.01,12.56,28.01,28C474.23,652.72,461.66,665.28,446.22,665.28z M583.59,747.64h-59.04
				c-11.85,0-21.5-9.65-21.5-21.51c0-11.85,9.65-21.5,21.5-21.5h59.04c11.86,0,21.51,9.65,21.51,21.5
				C605.09,737.99,595.44,747.64,583.59,747.64z M583.59,658.79h-59.04c-11.85,0-21.5-9.65-21.5-21.51c0-11.85,9.65-21.5,21.5-21.5
				h59.04c11.86,0,21.51,9.65,21.51,21.5C605.09,649.14,595.44,658.79,583.59,658.79z M676.87,978.79
				c-38.75,0-70.28-31.53-70.28-70.29c0-38.75,31.52-70.28,70.28-70.28c38.75,0,70.29,31.52,70.29,70.28
				C747.16,947.26,715.63,978.79,676.87,978.79z M794.36,764.5c-21.15,0-38.36-17.21-38.36-38.36s17.21-38.36,38.36-38.36
				s38.36,17.21,38.36,38.36S815.52,764.5,794.36,764.5z M866.35,836.5c-21.15,0-38.35-17.21-38.35-38.36s17.2-38.36,38.35-38.36
				c21.15,0,38.36,17.21,38.36,38.36S887.51,836.5,866.35,836.5z M938.35,764.5c-21.15,0-38.36-17.21-38.36-38.36
				s17.21-38.36,38.36-38.36c21.15,0,38.36,17.21,38.36,38.36S959.51,764.5,938.35,764.5z"/>
		</g>
		<g>
			<linearGradient id="SVGID_2_" gradientUnits="userSpaceOnUse" x1="553.1877" y1="329.2428" x2="143.4029" y2="1039.011">
				<stop  offset="0" style="stop-color:#70788E"/>
				<stop  offset="1" style="stop-color:#5A617A"/>
			</linearGradient>
			<path class="st2" d="M105.09,762.29v213.16c0,39.54,32.35,71.89,71.89,71.89h159.69c-20.89-59.63-56.31-130.03-118.79-197.23
				C191.98,822.26,150.11,791.96,105.09,762.29z"/>
			<linearGradient id="SVGID_3_" gradientUnits="userSpaceOnUse" x1="611.2555" y1="362.7684" x2="201.4713" y2="1072.5354">
				<stop  offset="0" style="stop-color:#70788E"/>
				<stop  offset="1" style="stop-color:#5A617A"/>
			</linearGradient>
			<path class="st3" d="M495.62,566.53H176.98c-39.54,0-71.89,32.35-71.89,71.89v123.88c45.02,29.67,86.89,59.97,112.79,87.82
				c62.48,67.19,97.9,137.6,118.79,197.23h237.42c-49.42-67.94-95.96-164.92-99.87-292.11C472.24,690.63,482.24,624.4,495.62,566.53
				z"/>
			<g class="st4">
				<linearGradient id="SVGID_4_" gradientUnits="userSpaceOnUse" x1="-101.532" y1="806.9332" x2="695.8568" y2="806.9332">
					<stop  offset="5.376340e-03" style="stop-color:#AAC8E5"/>
					<stop  offset="0.0741" style="stop-color:#A2BDDA"/>
					<stop  offset="0.3583" style="stop-color:#8396B1"/>
					<stop  offset="0.6162" style="stop-color:#6C7993"/>
					<stop  offset="0.837" style="stop-color:#5F6780"/>
					<stop  offset="0.9946" style="stop-color:#5A617A"/>
				</linearGradient>
				<path class="st5" d="M495.62,566.53H176.98c-39.54,0-71.89,32.35-71.89,71.89v123.88c45.02,29.67,86.89,59.97,112.79,87.82
					c62.48,67.19,97.9,137.6,118.79,197.23h237.42c-49.42-67.94-95.96-164.92-99.87-292.11
					C472.24,690.63,482.24,624.4,495.62,566.53z"/>
			</g>
		</g>
		<g>
			<linearGradient id="SVGID_5_" gradientUnits="userSpaceOnUse" x1="1066.0144" y1="625.4047" x2="656.2302" y2="1335.1716">
				<stop  offset="0" style="stop-color:#70788E"/>
				<stop  offset="1" style="stop-color:#5A617A"/>
			</linearGradient>
			<path class="st6" d="M777.68,1047.34h167.34c39.54,0,71.89-32.35,71.89-71.89V638.42c0-38.29-30.36-69.75-68.19-71.7
				c-67.6,83.24-127.69,185.76-153.04,304.49C780.77,941.08,776.3,999.33,777.68,1047.34z"/>
			<linearGradient id="SVGID_6_" gradientUnits="userSpaceOnUse" x1="785.9028" y1="463.6007" x2="376.1178" y2="1173.3691">
				<stop  offset="0" style="stop-color:#70788E"/>
				<stop  offset="1" style="stop-color:#5A617A"/>
			</linearGradient>
			<path class="st7" d="M679.4,566.53H495.62c-13.38,57.88-23.38,124.11-21.4,188.7c3.91,127.2,50.45,224.17,99.87,292.11h105.64
				C634.7,941.84,582.57,751.57,679.4,566.53z"/>
			<linearGradient id="SVGID_7_" gradientUnits="userSpaceOnUse" x1="891.5494" y1="524.5953" x2="481.765" y2="1234.3628">
				<stop  offset="0" style="stop-color:#70788E"/>
				<stop  offset="1" style="stop-color:#5A617A"/>
			</linearGradient>
			<path class="st8" d="M679.4,566.53c-96.84,185.05-44.7,375.31,0.33,480.81h97.95c-1.38-48.01,3.09-106.27,18-176.14
				c25.35-118.73,85.45-221.25,153.04-304.49c-1.23-0.06-2.45-0.19-3.7-0.19H679.4z"/>
			<g class="st4">
				<linearGradient id="SVGID_8_" gradientUnits="userSpaceOnUse" x1="358.5304" y1="806.9332" x2="1385.3701" y2="806.9332">
					<stop  offset="5.376340e-03" style="stop-color:#AAC8E5"/>
					<stop  offset="0.0741" style="stop-color:#A2BDDA"/>
					<stop  offset="0.3583" style="stop-color:#8396B1"/>
					<stop  offset="0.6162" style="stop-color:#6C7993"/>
					<stop  offset="0.837" style="stop-color:#5F6780"/>
					<stop  offset="0.9946" style="stop-color:#5A617A"/>
				</linearGradient>
				<path class="st9" d="M679.4,566.53c-96.84,185.05-44.7,375.31,0.33,480.81h97.95c-1.38-48.01,3.09-106.27,18-176.14
					c25.35-118.73,85.45-221.25,153.04-304.49c-1.23-0.06-2.45-0.19-3.7-0.19H679.4z"/>
			</g>
		</g>
		<linearGradient id="SVGID_9_" gradientUnits="userSpaceOnUse" x1="-1223.8494" y1="81.0934" x2="1996.3762" y2="81.0934">
			<stop  offset="0" style="stop-color:#5A617A"/>
			<stop  offset="0.1579" style="stop-color:#555B73"/>
			<stop  offset="0.6487" style="stop-color:#484C60"/>
			<stop  offset="1" style="stop-color:#43475A"/>
		</linearGradient>
		<path class="st10" d="M806.47,44.01H315.54c-43.71,0-80.33,31.54-87.22,74.17h665.37C886.8,75.55,850.18,44.01,806.47,44.01z"/>
		<g class="st11">
			<linearGradient id="SVGID_10_" gradientUnits="userSpaceOnUse" x1="288.4915" y1="89.2142" x2="844.5673" y2="89.2142">
				<stop  offset="0" style="stop-color:#394360"/>
				<stop  offset="0.0809" style="stop-color:#37415D"/>
				<stop  offset="0.6166" style="stop-color:#2F354A"/>
				<stop  offset="1" style="stop-color:#2C3144"/>
			</linearGradient>
			<path class="st12" d="M288.49,90.48c0,0,14.43-27.19,55.67-27.19s319.65,0,426.2,0c37.1,0,74.39,18.64,74.21,43.78
				C844.38,132.22,288.49,90.48,288.49,90.48z"/>
		</g>
		<path class="st0" d="M903.59,122.34c-5.16-49.94-46.92-87.61-97.12-87.61H315.54c-50.2,0-91.96,37.67-97.12,87.61l-0.53,5.12
			h686.24L903.59,122.34z M228.32,118.18c6.88-42.63,43.51-74.17,87.22-74.17h490.93c43.71,0,80.33,31.54,87.22,74.17H228.32z"/>
		<path class="st0" d="M971.11,536.56H150.89c-46.16,0-83.71,37.55-83.71,83.71v383.29c0,46.15,37.55,83.71,83.71,83.71h820.22
			c46.16,0,83.71-37.56,83.71-83.71V620.27C1054.82,574.11,1017.27,536.56,971.11,536.56z M1045.55,1003.56
			c0,41.05-33.39,74.44-74.44,74.44H150.89c-41.05,0-74.44-33.39-74.44-74.44V620.27c0-41.05,33.39-74.44,74.44-74.44h820.22
			c41.05,0,74.44,33.39,74.44,74.44V1003.56z"/>
		<g>
			<path class="st13" d="M866.35,683.23c16.04,0,29.09-13.04,29.09-29.08c0-16.04-13.05-29.09-29.09-29.09
				c-16.03,0-29.08,13.05-29.08,29.09C837.28,670.19,850.32,683.23,866.35,683.23z"/>
			<linearGradient id="SVGID_11_" gradientUnits="userSpaceOnUse" x1="834.4621" y1="654.1462" x2="881.4338" y2="654.1462">
				<stop  offset="0" style="stop-color:#FFFFFF"/>
				<stop  offset="9.440839e-03" style="stop-color:#FAFDFC"/>
				<stop  offset="0.0994" style="stop-color:#CCE8E6"/>
				<stop  offset="0.1952" style="stop-color:#A3D6D3"/>
				<stop  offset="0.2955" style="stop-color:#81C7C2"/>
				<stop  offset="0.4015" style="stop-color:#65BBB4"/>
				<stop  offset="0.5153" style="stop-color:#4FB1AA"/>
				<stop  offset="0.6406" style="stop-color:#40AAA3"/>
				<stop  offset="0.7862" style="stop-color:#37A69E"/>
				<stop  offset="1" style="stop-color:#34A59D"/>
			</linearGradient>
			<path class="st14" d="M881.43,623.93c-4.05-1.72-8.49-2.66-13.16-2.66c-18.65,0-33.82,15.17-33.82,33.81
				c0,14.79,9.56,27.36,22.81,31.94c-3.41-6.3-5.35-13.52-5.35-21.19C851.92,646.51,864.24,630.11,881.43,623.93z"/>
			<path class="st0" d="M866.35,692.51c21.15,0,38.36-17.2,38.36-38.36c0-21.15-17.21-38.36-38.36-38.36
				C845.2,615.79,828,633,828,654.15C828,675.3,845.2,692.51,866.35,692.51z M866.35,625.06c16.04,0,29.09,13.05,29.09,29.09
				c0,16.03-13.05,29.08-29.09,29.08c-16.03,0-29.08-13.04-29.08-29.08C837.28,638.11,850.32,625.06,866.35,625.06z"/>
		</g>
		<g>
			<path class="st13" d="M866.35,769.05c-16.03,0-29.08,13.04-29.08,29.09s13.04,29.09,29.08,29.09c16.04,0,29.09-13.04,29.09-29.09
				S882.4,769.05,866.35,769.05z"/>
			<linearGradient id="SVGID_12_" gradientUnits="userSpaceOnUse" x1="834.4621" y1="798.1398" x2="881.4338" y2="798.1398">
				<stop  offset="0" style="stop-color:#FFFFFF"/>
				<stop  offset="9.440839e-03" style="stop-color:#FAFDFC"/>
				<stop  offset="0.0994" style="stop-color:#CCE8E6"/>
				<stop  offset="0.1952" style="stop-color:#A3D6D3"/>
				<stop  offset="0.2955" style="stop-color:#81C7C2"/>
				<stop  offset="0.4015" style="stop-color:#65BBB4"/>
				<stop  offset="0.5153" style="stop-color:#4FB1AA"/>
				<stop  offset="0.6406" style="stop-color:#40AAA3"/>
				<stop  offset="0.7862" style="stop-color:#37A69E"/>
				<stop  offset="1" style="stop-color:#34A59D"/>
			</linearGradient>
			<path class="st15" d="M881.43,767.93c-4.05-1.72-8.49-2.66-13.16-2.66c-18.65,0-33.82,15.17-33.82,33.81
				c0,14.79,9.56,27.36,22.81,31.94c-3.41-6.3-5.35-13.52-5.35-21.19C851.92,790.51,864.24,774.11,881.43,767.93z"/>
			<path class="st0" d="M866.35,759.78c-21.15,0-38.35,17.21-38.35,38.36s17.2,38.36,38.35,38.36c21.15,0,38.36-17.21,38.36-38.36
				S887.51,759.78,866.35,759.78z M866.35,827.23c-16.03,0-29.08-13.04-29.08-29.09s13.04-29.09,29.08-29.09
				c16.04,0,29.09,13.04,29.09,29.09S882.4,827.23,866.35,827.23z"/>
		</g>
		<g>
			<path class="st13" d="M794.36,697.05c-16.04,0-29.09,13.05-29.09,29.09s13.04,29.09,29.09,29.09c16.04,0,29.09-13.04,29.09-29.09
				S810.41,697.05,794.36,697.05z"/>
			<linearGradient id="SVGID_13_" gradientUnits="userSpaceOnUse" x1="762.5717" y1="726.0584" x2="809.5435" y2="726.0584">
				<stop  offset="0" style="stop-color:#FFFFFF"/>
				<stop  offset="9.440839e-03" style="stop-color:#FAFDFC"/>
				<stop  offset="0.0994" style="stop-color:#CCE8E6"/>
				<stop  offset="0.1952" style="stop-color:#A3D6D3"/>
				<stop  offset="0.2955" style="stop-color:#81C7C2"/>
				<stop  offset="0.4015" style="stop-color:#65BBB4"/>
				<stop  offset="0.5153" style="stop-color:#4FB1AA"/>
				<stop  offset="0.6406" style="stop-color:#40AAA3"/>
				<stop  offset="0.7862" style="stop-color:#37A69E"/>
				<stop  offset="1" style="stop-color:#34A59D"/>
			</linearGradient>
			<path class="st16" d="M809.54,695.84c-4.05-1.72-8.49-2.66-13.16-2.66c-18.65,0-33.82,15.17-33.82,33.81
				c0,14.79,9.56,27.36,22.81,31.94c-3.41-6.3-5.35-13.52-5.35-21.19C780.03,718.43,792.35,702.02,809.54,695.84z"/>
			<path class="st0" d="M794.36,687.78c-21.15,0-38.36,17.21-38.36,38.36s17.21,38.36,38.36,38.36s38.36-17.21,38.36-38.36
				S815.52,687.78,794.36,687.78z M794.36,755.23c-16.04,0-29.09-13.04-29.09-29.09s13.04-29.09,29.09-29.09
				c16.04,0,29.09,13.05,29.09,29.09S810.41,755.23,794.36,755.23z"/>
		</g>
		<g>
			<path class="st13" d="M938.35,697.05c-16.04,0-29.09,13.05-29.09,29.09s13.05,29.09,29.09,29.09s29.09-13.04,29.09-29.09
				S954.4,697.05,938.35,697.05z"/>
			<linearGradient id="SVGID_14_" gradientUnits="userSpaceOnUse" x1="906.7393" y1="725.384" x2="953.7111" y2="725.384">
				<stop  offset="0" style="stop-color:#FFFFFF"/>
				<stop  offset="9.440839e-03" style="stop-color:#FAFDFC"/>
				<stop  offset="0.0994" style="stop-color:#CCE8E6"/>
				<stop  offset="0.1952" style="stop-color:#A3D6D3"/>
				<stop  offset="0.2955" style="stop-color:#81C7C2"/>
				<stop  offset="0.4015" style="stop-color:#65BBB4"/>
				<stop  offset="0.5153" style="stop-color:#4FB1AA"/>
				<stop  offset="0.6406" style="stop-color:#40AAA3"/>
				<stop  offset="0.7862" style="stop-color:#37A69E"/>
				<stop  offset="1" style="stop-color:#34A59D"/>
			</linearGradient>
			<path class="st17" d="M953.71,695.17c-4.05-1.72-8.49-2.66-13.16-2.66c-18.65,0-33.82,15.17-33.82,33.81
				c0,14.79,9.56,27.36,22.81,31.94c-3.41-6.3-5.35-13.52-5.35-21.19C924.2,717.75,936.52,701.35,953.71,695.17z"/>
			<path class="st0" d="M938.35,687.78c-21.15,0-38.36,17.21-38.36,38.36s17.21,38.36,38.36,38.36c21.15,0,38.36-17.21,38.36-38.36
				S959.51,687.78,938.35,687.78z M938.35,755.23c-16.04,0-29.09-13.04-29.09-29.09s13.05-29.09,29.09-29.09
				s29.09,13.05,29.09,29.09S954.4,755.23,938.35,755.23z"/>
		</g>
		<g>
			<g>
				<path class="st18" d="M416.99,889.07h-8.23h-9.28v-9.28v-8.23c0-10.72-8.71-19.43-19.43-19.43c-10.72,0-19.44,8.71-19.44,19.43
					v8.23v9.28h-9.28h-8.23c-10.72,0-19.43,8.71-19.43,19.43c0,10.72,8.71,19.44,19.43,19.44h8.23h9.28v9.28v8.23
					c0,10.72,8.71,19.43,19.43,19.43h0.01c10.72,0,19.43-8.71,19.43-19.43v-8.23v-9.28h9.28h8.23c10.72,0,19.43-8.71,19.43-19.43
					v-0.01C436.42,897.79,427.7,889.07,416.99,889.07z"/>
				<g>
					<linearGradient id="SVGID_15_" gradientUnits="userSpaceOnUse" x1="300.5626" y1="908.5073" x2="459.5349" y2="908.5073">
						<stop  offset="0" style="stop-color:#5A617A"/>
						<stop  offset="0.1579" style="stop-color:#555B73"/>
						<stop  offset="0.6487" style="stop-color:#484C60"/>
						<stop  offset="1" style="stop-color:#43475A"/>
					</linearGradient>
					<path class="st19" d="M380.04,829.02c-43.83,0-79.48,35.66-79.48,79.48c0,43.84,35.65,79.49,79.48,79.49
						c43.83,0,79.49-35.65,79.49-79.49C459.53,864.68,423.88,829.02,380.04,829.02z M416.99,937.22h-8.23v8.23
						c0,15.83-12.88,28.71-28.71,28.71c-15.83,0-28.72-12.88-28.72-28.71v-8.23h-8.23c-15.83,0-28.71-12.88-28.71-28.71
						c0-15.83,12.88-28.72,28.71-28.72h8.23v-8.23c0-15.83,12.88-28.71,28.71-28.71c15.83,0,28.72,12.88,28.72,28.71v8.23h8.23
						c15.83,0,28.71,12.88,28.71,28.71C445.69,924.34,432.81,937.22,416.99,937.22z"/>
				</g>
				<path class="st0" d="M416.99,879.8h-8.23v-8.23c0-15.83-12.88-28.71-28.72-28.71c-15.83,0-28.71,12.88-28.71,28.71v8.23h-8.23
					c-15.83,0-28.71,12.88-28.71,28.72c0,15.83,12.88,28.71,28.71,28.71h8.23v8.23c0,15.83,12.88,28.71,28.72,28.71
					c15.83,0,28.71-12.88,28.71-28.71v-8.23h8.23c15.83,0,28.71-12.88,28.71-28.72C445.69,892.68,432.81,879.8,416.99,879.8z
					 M436.42,908.51c0,10.72-8.71,19.43-19.43,19.43h-8.23h-9.28v9.28v8.23c0,10.72-8.71,19.43-19.43,19.43h-0.01
					c-10.72,0-19.43-8.71-19.43-19.43v-8.23v-9.28h-9.28h-8.23c-10.72,0-19.43-8.72-19.43-19.44c0-10.72,8.71-19.43,19.43-19.43
					h8.23h9.28v-9.28v-8.23c0-10.72,8.72-19.43,19.44-19.43c10.72,0,19.43,8.71,19.43,19.43v8.23v9.28h9.28h8.23
					C427.7,889.07,436.42,897.79,436.42,908.51L436.42,908.51z"/>
			</g>
			<path class="st0" d="M380.04,819.74c-48.94,0-88.76,39.81-88.76,88.76c0,48.94,39.81,88.77,88.76,88.77
				c48.94,0,88.77-39.82,88.77-88.77C468.81,859.56,428.99,819.74,380.04,819.74z M380.04,987.99c-43.83,0-79.48-35.65-79.48-79.49
				c0-43.83,35.65-79.48,79.48-79.48c43.83,0,79.49,35.66,79.49,79.48C459.53,952.34,423.88,987.99,380.04,987.99z"/>
		</g>
		<g>
			<path class="st18" d="M370.61,656.01c10.33,0,18.72-8.4,18.72-18.72c0-10.33-8.4-18.72-18.72-18.72
				c-10.33,0-18.72,8.4-18.72,18.72C351.89,647.61,360.29,656.01,370.61,656.01z"/>
			<linearGradient id="SVGID_16_" gradientUnits="userSpaceOnUse" x1="349.1642" y1="637.2881" x2="381.9165" y2="637.2881">
				<stop  offset="0" style="stop-color:#FFFFFF"/>
				<stop  offset="0.0297" style="stop-color:#FEF2F4"/>
				<stop  offset="0.1312" style="stop-color:#FBCAD2"/>
				<stop  offset="0.2394" style="stop-color:#F9A8B5"/>
				<stop  offset="0.3539" style="stop-color:#F78C9D"/>
				<stop  offset="0.4768" style="stop-color:#F5768B"/>
				<stop  offset="0.612" style="stop-color:#F4677E"/>
				<stop  offset="0.7691" style="stop-color:#F35E76"/>
				<stop  offset="1" style="stop-color:#F35B74"/>
			</linearGradient>
			<path class="st20" d="M381.92,616.22c-2.82-1.2-5.92-1.86-9.17-1.86c-13,0-23.58,10.58-23.58,23.58
				c0,10.31,6.67,19.08,15.91,22.27c-2.38-4.4-3.73-9.43-3.73-14.78C361.34,631.97,369.93,620.53,381.92,616.22z"/>
			<path class="st0" d="M370.61,665.28c15.44,0,28-12.56,28-28c0-15.44-12.56-28-28-28c-15.44,0-28,12.56-28,28
				C342.61,652.72,355.18,665.28,370.61,665.28z M370.61,618.56c10.33,0,18.72,8.4,18.72,18.72c0,10.33-8.4,18.72-18.72,18.72
				c-10.33,0-18.72-8.4-18.72-18.72C351.89,626.96,360.29,618.56,370.61,618.56z"/>
		</g>
		<g>
			<path class="st18" d="M446.22,618.56c-10.33,0-18.72,8.4-18.72,18.72c0,10.33,8.4,18.72,18.72,18.72
				c10.33,0,18.73-8.4,18.73-18.72C464.95,626.96,456.55,618.56,446.22,618.56z"/>
			<linearGradient id="SVGID_17_" gradientUnits="userSpaceOnUse" x1="425.3058" y1="637.2881" x2="458.0582" y2="637.2881">
				<stop  offset="0" style="stop-color:#FFFFFF"/>
				<stop  offset="0.0297" style="stop-color:#FEF2F4"/>
				<stop  offset="0.1312" style="stop-color:#FBCAD2"/>
				<stop  offset="0.2394" style="stop-color:#F9A8B5"/>
				<stop  offset="0.3539" style="stop-color:#F78C9D"/>
				<stop  offset="0.4768" style="stop-color:#F5768B"/>
				<stop  offset="0.612" style="stop-color:#F4677E"/>
				<stop  offset="0.7691" style="stop-color:#F35E76"/>
				<stop  offset="1" style="stop-color:#F35B74"/>
			</linearGradient>
			<path class="st21" d="M458.06,616.22c-2.82-1.2-5.92-1.86-9.17-1.86c-13,0-23.58,10.58-23.58,23.58
				c0,10.31,6.67,19.08,15.91,22.27c-2.38-4.4-3.73-9.43-3.73-14.78C437.48,631.97,446.07,620.53,458.06,616.22z"/>
			<path class="st0" d="M446.22,609.28c-15.44,0-28,12.56-28,28c0,15.44,12.56,28,28,28c15.45,0,28.01-12.56,28.01-28
				C474.23,621.85,461.66,609.28,446.22,609.28z M446.22,656.01c-10.33,0-18.72-8.4-18.72-18.72c0-10.33,8.4-18.72,18.72-18.72
				c10.33,0,18.73,8.4,18.73,18.72C464.95,647.61,456.55,656.01,446.22,656.01z"/>
		</g>
		<g>
			<path class="st18" d="M661.66,656.01c10.33,0,18.73-8.4,18.73-18.72c0-10.33-8.41-18.72-18.73-18.72
				c-10.33,0-18.72,8.4-18.72,18.72C642.94,647.61,651.34,656.01,661.66,656.01z"/>
			<linearGradient id="SVGID_18_" gradientUnits="userSpaceOnUse" x1="638.6578" y1="637.2881" x2="671.4102" y2="637.2881">
				<stop  offset="0" style="stop-color:#FFFFFF"/>
				<stop  offset="0.0297" style="stop-color:#FEF2F4"/>
				<stop  offset="0.1312" style="stop-color:#FBCAD2"/>
				<stop  offset="0.2394" style="stop-color:#F9A8B5"/>
				<stop  offset="0.3539" style="stop-color:#F78C9D"/>
				<stop  offset="0.4768" style="stop-color:#F5768B"/>
				<stop  offset="0.612" style="stop-color:#F4677E"/>
				<stop  offset="0.7691" style="stop-color:#F35E76"/>
				<stop  offset="1" style="stop-color:#F35B74"/>
			</linearGradient>
			<path class="st22" d="M671.41,616.22c-2.82-1.2-5.92-1.86-9.17-1.86c-13,0-23.58,10.58-23.58,23.58
				c0,10.31,6.67,19.08,15.91,22.27c-2.38-4.4-3.73-9.43-3.73-14.78C650.83,631.97,659.42,620.53,671.41,616.22z"/>
			<path class="st0" d="M661.66,665.28c15.45,0,28.01-12.56,28.01-28c0-15.44-12.56-28-28.01-28c-15.44,0-28,12.56-28,28
				C633.66,652.72,646.23,665.28,661.66,665.28z M661.66,618.56c10.33,0,18.73,8.4,18.73,18.72c0,10.33-8.41,18.72-18.73,18.72
				c-10.33,0-18.72-8.4-18.72-18.72C642.94,626.96,651.34,618.56,661.66,618.56z"/>
		</g>
		<g>
			<path class="st18" d="M737.28,656.01c10.33,0,18.72-8.4,18.72-18.72c0-10.33-8.4-18.72-18.72-18.72s-18.73,8.4-18.73,18.72
				C718.54,647.61,726.95,656.01,737.28,656.01z"/>
			<linearGradient id="SVGID_19_" gradientUnits="userSpaceOnUse" x1="716.2242" y1="637.2881" x2="748.9766" y2="637.2881">
				<stop  offset="0" style="stop-color:#FFFFFF"/>
				<stop  offset="0.0297" style="stop-color:#FEF2F4"/>
				<stop  offset="0.1312" style="stop-color:#FBCAD2"/>
				<stop  offset="0.2394" style="stop-color:#F9A8B5"/>
				<stop  offset="0.3539" style="stop-color:#F78C9D"/>
				<stop  offset="0.4768" style="stop-color:#F5768B"/>
				<stop  offset="0.612" style="stop-color:#F4677E"/>
				<stop  offset="0.7691" style="stop-color:#F35E76"/>
				<stop  offset="1" style="stop-color:#F35B74"/>
			</linearGradient>
			<path class="st23" d="M748.98,616.22c-2.82-1.2-5.92-1.86-9.17-1.86c-13,0-23.58,10.58-23.58,23.58
				c0,10.31,6.67,19.08,15.91,22.27c-2.38-4.4-3.73-9.43-3.73-14.78C728.4,631.97,736.99,620.53,748.98,616.22z"/>
			<path class="st0" d="M737.28,665.28c15.44,0,28-12.56,28-28c0-15.44-12.56-28-28-28c-15.44,0-28.01,12.56-28.01,28
				C709.27,652.72,721.83,665.28,737.28,665.28z M737.28,618.56c10.33,0,18.72,8.4,18.72,18.72c0,10.33-8.4,18.72-18.72,18.72
				s-18.73-8.4-18.73-18.72C718.54,626.96,726.95,618.56,737.28,618.56z"/>
		</g>
		<g>
			<path class="st13" d="M583.59,625.06h-59.04c-6.74,0-12.22,5.48-12.22,12.22c0,6.74,5.48,12.23,12.22,12.23h59.04
				c6.74,0,12.23-5.49,12.23-12.23C595.81,630.54,590.33,625.06,583.59,625.06z"/>
			<path class="st0" d="M583.59,615.79h-59.04c-11.85,0-21.5,9.65-21.5,21.5c0,11.86,9.65,21.51,21.5,21.51h59.04
				c11.86,0,21.51-9.65,21.51-21.51C605.09,625.43,595.44,615.79,583.59,615.79z M583.59,649.51h-59.04
				c-6.74,0-12.22-5.49-12.22-12.23c0-6.74,5.48-12.22,12.22-12.22h59.04c6.74,0,12.23,5.48,12.23,12.22
				C595.81,644.02,590.33,649.51,583.59,649.51z"/>
		</g>
		<g>
			<path class="st13" d="M583.59,713.92h-59.04c-6.74,0-12.22,5.48-12.22,12.22c0,6.74,5.48,12.23,12.22,12.23h59.04
				c6.74,0,12.23-5.49,12.23-12.23C595.81,719.4,590.33,713.92,583.59,713.92z"/>
			<path class="st0" d="M583.59,704.64h-59.04c-11.85,0-21.5,9.65-21.5,21.5c0,11.86,9.65,21.51,21.5,21.51h59.04
				c11.86,0,21.51-9.65,21.51-21.51C605.09,714.29,595.44,704.64,583.59,704.64z M583.59,738.37h-59.04
				c-6.74,0-12.22-5.49-12.22-12.23c0-6.74,5.48-12.22,12.22-12.22h59.04c6.74,0,12.23,5.48,12.23,12.22
				C595.81,732.88,590.33,738.37,583.59,738.37z"/>
		</g>
		<g>
			<linearGradient id="SVGID_20_" gradientUnits="userSpaceOnUse" x1="615.8709" y1="908.5073" x2="737.8833" y2="908.5073">
				<stop  offset="0" style="stop-color:#5A617A"/>
				<stop  offset="0.1579" style="stop-color:#555B73"/>
				<stop  offset="0.6487" style="stop-color:#484C60"/>
				<stop  offset="1" style="stop-color:#43475A"/>
			</linearGradient>
			<path class="st24" d="M676.87,847.5c-33.64,0-61,27.37-61,61c0,33.64,27.37,61.01,61,61.01c33.64,0,61.01-27.37,61.01-61.01
				C737.88,874.87,710.52,847.5,676.87,847.5z"/>
			<path class="st0" d="M676.87,838.22c-38.75,0-70.28,31.52-70.28,70.28c0,38.75,31.52,70.29,70.28,70.29
				c38.75,0,70.29-31.53,70.29-70.29C747.16,869.75,715.63,838.22,676.87,838.22z M676.87,969.51c-33.64,0-61-27.37-61-61.01
				c0-33.64,27.37-61,61-61c33.64,0,61.01,27.37,61.01,61C737.88,942.15,710.52,969.51,676.87,969.51z"/>
			<g>
				<path class="st13" d="M676.27,857.9c-26.59,0-48.21,22.7-48.21,50.61c0,27.91,21.63,50.61,48.21,50.61
					c26.59,0,48.21-22.7,48.21-50.61C724.48,880.6,702.86,857.9,676.27,857.9z"/>
				<linearGradient id="SVGID_21_" gradientUnits="userSpaceOnUse" x1="660.1693" y1="860.0092" x2="660.1693" y2="952.4314">
					<stop  offset="0" style="stop-color:#FFFFFF"/>
					<stop  offset="9.440839e-03" style="stop-color:#FAFDFC"/>
					<stop  offset="0.0994" style="stop-color:#CCE8E6"/>
					<stop  offset="0.1952" style="stop-color:#A3D6D3"/>
					<stop  offset="0.2955" style="stop-color:#81C7C2"/>
					<stop  offset="0.4015" style="stop-color:#65BBB4"/>
					<stop  offset="0.5153" style="stop-color:#4FB1AA"/>
					<stop  offset="0.6406" style="stop-color:#40AAA3"/>
					<stop  offset="0.7862" style="stop-color:#37A69E"/>
					<stop  offset="1" style="stop-color:#34A59D"/>
				</linearGradient>
				<path class="st25" d="M695.86,863.75c-6.15-2.41-12.9-3.74-19.99-3.74c-28.33,0-51.38,21.32-51.38,47.53
					c0,20.79,14.53,38.46,34.67,44.9c-5.19-8.86-8.13-19-8.13-29.78C651.01,895.49,669.73,872.44,695.86,863.75z"/>
				<g>
					<path class="st0" d="M676.88,960.6c-28.81,0-52.24-23.44-52.24-52.25c0-28.81,23.43-52.24,52.24-52.24
						c28.81,0,52.24,23.44,52.24,52.24C729.12,937.16,705.69,960.6,676.88,960.6z M676.88,865.38c-23.69,0-42.97,19.28-42.97,42.97
						c0,23.7,19.28,42.98,42.97,42.98c23.69,0,42.97-19.28,42.97-42.98C719.84,884.66,700.57,865.38,676.88,865.38z"/>
				</g>
			</g>
		</g>
		<g>
			<linearGradient id="SVGID_22_" gradientUnits="userSpaceOnUse" x1="154.5621" y1="687.8721" x2="276.5753" y2="687.8721">
				<stop  offset="0" style="stop-color:#5A617A"/>
				<stop  offset="0.1579" style="stop-color:#555B73"/>
				<stop  offset="0.6487" style="stop-color:#484C60"/>
				<stop  offset="1" style="stop-color:#43475A"/>
			</linearGradient>
			<path class="st26" d="M215.57,626.87c-33.64,0-61.01,27.37-61.01,61c0,33.64,27.37,61.01,61.01,61.01c33.64,0,61-27.37,61-61.01
				C276.58,654.23,249.21,626.87,215.57,626.87z"/>
			<path class="st0" d="M215.57,617.59c-38.75,0-70.29,31.53-70.29,70.28c0,38.75,31.53,70.29,70.29,70.29s70.28-31.53,70.28-70.29
				C285.85,649.11,254.33,617.59,215.57,617.59z M215.57,748.88c-33.64,0-61.01-27.37-61.01-61.01c0-33.64,27.37-61,61.01-61
				c33.64,0,61,27.37,61,61C276.58,721.51,249.21,748.88,215.57,748.88z"/>
			<g>
				<ellipse class="st13" cx="215.04" cy="687.87" rx="48.21" ry="50.61"/>
				<linearGradient id="SVGID_23_" gradientUnits="userSpaceOnUse" x1="198.9366" y1="639.3735" x2="198.9366" y2="731.7966">
					<stop  offset="0" style="stop-color:#FFFFFF"/>
					<stop  offset="9.440839e-03" style="stop-color:#FAFDFC"/>
					<stop  offset="0.0994" style="stop-color:#CCE8E6"/>
					<stop  offset="0.1952" style="stop-color:#A3D6D3"/>
					<stop  offset="0.2955" style="stop-color:#81C7C2"/>
					<stop  offset="0.4015" style="stop-color:#65BBB4"/>
					<stop  offset="0.5153" style="stop-color:#4FB1AA"/>
					<stop  offset="0.6406" style="stop-color:#40AAA3"/>
					<stop  offset="0.7862" style="stop-color:#37A69E"/>
					<stop  offset="1" style="stop-color:#34A59D"/>
				</linearGradient>
				<path class="st27" d="M234.62,643.12c-6.15-2.41-12.9-3.74-19.99-3.74c-28.33,0-51.38,21.32-51.38,47.53
					c0,20.79,14.53,38.46,34.67,44.9c-5.19-8.86-8.13-19-8.13-29.78C189.78,674.86,208.5,651.81,234.62,643.12z"/>
				<path class="st0" d="M215.64,739.97c-28.81,0-52.24-23.44-52.24-52.25c0-28.81,23.44-52.24,52.24-52.24
					c28.81,0,52.24,23.43,52.24,52.24C267.89,716.52,244.45,739.97,215.64,739.97z M215.64,644.75c-23.69,0-42.97,19.28-42.97,42.97
					c0,23.7,19.28,42.97,42.97,42.97s42.97-19.28,42.97-42.97C258.61,664.03,239.33,644.75,215.64,644.75z"/>
			</g>
		</g>
	</g>
	<g>
		<linearGradient id="SVGID_24_" gradientUnits="userSpaceOnUse" x1="-7.5304" y1="314.8757" x2="1162.2462" y2="314.8757">
			<stop  offset="0" style="stop-color:#5A617A"/>
			<stop  offset="0.1579" style="stop-color:#555B73"/>
			<stop  offset="0.6487" style="stop-color:#484C60"/>
			<stop  offset="1" style="stop-color:#43475A"/>
		</linearGradient>
		<path class="st28" d="M954.76,97.99H167.85c-14.04,0-25.46,11.42-25.46,25.46V506.3c0,14.04,11.42,25.46,25.46,25.46h786.91
			c14.04,0,25.46-11.42,25.46-25.46V123.45C980.23,109.41,968.8,97.99,954.76,97.99z"/>
		<g>
			<polygon class="st18" points="183.72,121.65 183.72,505.95 239.23,505.95 370.08,121.65 			"/>
			<polygon class="st18" points="427.38,121.65 296.53,505.95 373.3,505.95 504.16,121.65 			"/>
			<polygon class="st18" points="912.06,121.65 712.46,121.65 581.6,505.95 912.06,505.95 			"/>
			<polygon class="st18" points="370.08,121.65 239.23,505.95 296.53,505.95 427.38,121.65 			"/>
			
				<linearGradient id="SVGID_25_" gradientUnits="userSpaceOnUse" x1="-417.0603" y1="437.7271" x2="31.6018" y2="437.7271" gradientTransform="matrix(0.4733 0.1612 -0.3223 0.9466 544.4278 -76.699)">
				<stop  offset="0" style="stop-color:#FFFFFF"/>
				<stop  offset="0.0986" style="stop-color:#FDE6EA"/>
				<stop  offset="0.3167" style="stop-color:#FAB5C0"/>
				<stop  offset="0.5229" style="stop-color:#F78E9F"/>
				<stop  offset="0.7116" style="stop-color:#F57287"/>
				<stop  offset="0.8766" style="stop-color:#F36179"/>
				<stop  offset="1" style="stop-color:#F35B74"/>
			</linearGradient>
			<polygon class="st29" points="370.08,121.65 239.23,505.95 296.53,505.95 427.38,121.65 			"/>
			<polygon class="st18" points="504.16,121.65 373.3,505.95 581.6,505.95 712.46,121.65 			"/>
			
				<linearGradient id="SVGID_26_" gradientUnits="userSpaceOnUse" x1="285.8254" y1="370.6999" x2="734.4406" y2="370.6999" gradientTransform="matrix(1.7208 0.5859 -0.3223 0.9466 -292.4632 -362.205)">
				<stop  offset="0" style="stop-color:#FFFFFF"/>
				<stop  offset="0.0986" style="stop-color:#FDE6EA"/>
				<stop  offset="0.3167" style="stop-color:#FAB5C0"/>
				<stop  offset="0.5229" style="stop-color:#F78E9F"/>
				<stop  offset="0.7116" style="stop-color:#F57287"/>
				<stop  offset="0.8766" style="stop-color:#F36179"/>
				<stop  offset="1" style="stop-color:#F35B74"/>
			</linearGradient>
			<polygon class="st30" points="504.16,121.65 373.3,505.95 581.6,505.95 712.46,121.65 			"/>
		</g>
		<path class="st13" d="M947.25,392.39l-15.41-7.61V245.1l9.88-7.42c9.32-0.96,17.48,6.25,17.66,15.62l3.28,120.78
			C962.66,381.37,954.37,390.79,947.25,392.39z"/>
		<g>
			<path class="st0" d="M945.97,395.69c-10.51,0-19.07-8.56-19.07-19.07V253.13c0-10.51,8.56-19.07,19.07-19.07
				c10.51,0,19.07,8.56,19.07,19.07v123.48C965.04,387.13,956.48,395.69,945.97,395.69z M945.97,242.54c-5.84,0-10.6,4.75-10.6,10.6
				v123.48c0,5.84,4.75,10.6,10.6,10.6c5.84,0,10.6-4.75,10.6-10.6V253.13C956.57,247.29,951.82,242.54,945.97,242.54z"/>
		</g>
		<g>
			<path class="st0" d="M915.89,510.9H180.19V118.85h735.71V510.9z M188.66,502.43h718.75v-375.1H188.66V502.43z"/>
			<path class="st0" d="M954.76,89.52H167.85c-18.72,0-33.94,15.22-33.94,33.93V506.3c0,18.71,15.23,33.93,33.94,33.93h786.91
				c18.72,0,33.94-15.23,33.94-33.93V123.45C988.7,104.74,973.48,89.52,954.76,89.52z M980.23,506.3
				c0,14.04-11.42,25.46-25.46,25.46H167.85c-14.04,0-25.46-11.42-25.46-25.46V123.45c0-14.04,11.42-25.46,25.46-25.46h786.91
				c14.04,0,25.46,11.42,25.46,25.46V506.3z"/>
		</g>
	</g>
</g>
</svg>
